<?xml version="1.0" encoding="utf-8"?>
<!-- Generator: Adobe Illustrator 24.0.1, SVG Export Plug-In . SVG Version: 6.00 Build 0)  -->
<svg version="1.1" id="Layer_1" xmlns="http://www.w3.org/2000/svg" xmlns:xlink="http://www.w3.org/1999/xlink" x="0px" y="0px"
	 viewBox="0 0 948 285.6" style="enable-background:new 0 0 948 285.6;" xml:space="preserve">
<style type="text/css">
	.st0{fill:#AAAAAA;}
	.st1{fill:#C1C1C1;}
	.st2{fill:#2C2C2C;}
</style>
<g>
	<g>
		<path class="st0" d="M255.1,106.6c0.4,0.6,1,1,1.7,1.2c0.7,0.1,1.4,0,2-0.4l16.7-10.9c0.6-0.4,1-1,1.2-1.7c0.1-0.7,0-1.4-0.4-2
			L268.6,81c-0.4-0.6-1-1-1.7-1.2c-0.7-0.1-1.4,0-2,0.4l-16.7,10.9c-0.6,0.4-1,1-1.1,1.7s0,1.4,0.4,2L255.1,106.6z"/>
		<path class="st0" d="M236.1,45.5l-16.7,10.8c-0.6,0.4-1,1-1.1,1.7c-0.2,0.7,0,1.4,0.4,2l7.7,11.8c0.4,0.6,1,1,1.7,1.2
			c0.7,0.1,1.4,0,2-0.4l16.7-10.8c0.6-0.4,1-1,1.1-1.7c0.2-0.7,0-1.4-0.4-2l-7.7-11.8c-0.4-0.6-1-1-1.7-1.2
			C237.4,45,236.7,45.1,236.1,45.5z"/>
		<path class="st0" d="M209.2,82.9l-0.4-0.6V86c0.3-0.3,0.7-0.6,0.8-1.1C209.8,84.2,209.6,83.5,209.2,82.9z"/>
		<path class="st0" d="M208.9,58.5v9.3l7,10.8c0.8,1.2,1.3,2.5,1.5,3.9s0.2,2.7,0,4.1c-0.3,1.3-0.8,2.6-1.6,3.8
			c-0.8,1.2-1.8,2.2-3,3l-3.9,2.5v12.3c0.2,0,43.5,25.8,43.5,25.8l43.5-25.1V86.3l-10.7-16.4c-0.5-0.7-0.9-1.6-1.4-2.5
			c-0.2,0.6-0.4,1.4-0.8,2.3s-0.8,2.1-1.4,3.3l-6.8-2.6l2.8-7.9l8.7-5.6l9.6,14.8V61.1l-4.2-1.6l1-2.8l-20.7-12l4.6,7.2l-6.6,4.3
			L256.9,36l-2.6-1.5c-0.1,0.2-0.1,0.3-0.2,0.5c-0.4,0.9-0.8,2.1-1.3,3.4l-5.4-2.1l-4.5,2.6c0.2,0.1,0.4,0.1,0.6,0.2
			c1.2,0.8,2.1,1.7,2.9,3l7.6,11.8c0.8,1.2,1.3,2.5,1.5,3.8c0.2,1.4,0.2,2.8,0,4.1c-0.3,1.3-0.8,2.6-1.6,3.8s-1.8,2.2-3,3
			l-16.7,10.8c-1.2,0.8-2.5,1.4-3.9,1.6s-2.7,0.2-4.1-0.1c-1.3-0.3-2.6-0.8-3.7-1.6c-1.2-0.8-2.2-1.8-3-3l-7.6-11.8
			c-0.8-1.2-1.3-2.6-1.5-4c-0.1-1,0-1.9,0.1-2.9L208.9,58.5z M239.4,91.1c0.3-1.3,0.8-2.6,1.6-3.7c0.7-1.2,1.7-2.1,2.9-2.9
			l16.7-10.8c1.2-0.8,2.5-1.3,3.8-1.5c1.4-0.2,2.7-0.2,4.1,0.1c1.3,0.3,2.6,0.8,3.8,1.6c1.2,0.8,2.2,1.8,3,2.9l7.6,11.8
			c0.8,1.2,1.3,2.5,1.5,3.9c0.3,1.4,0.2,2.7,0,4.1c-0.3,1.3-0.8,2.6-1.6,3.8c-0.8,1.2-1.8,2.2-3,3L263.2,114
			c-1.2,0.8-2.5,1.3-3.9,1.6c-1.4,0.2-2.7,0.2-4.1-0.1c-1.3-0.3-2.6-0.8-3.7-1.6c-1.2-0.8-2.2-1.8-3-3l-7.7-11.8
			c-0.8-1.2-1.3-2.6-1.5-4C239.1,93.8,239.1,92.4,239.4,91.1z M222.5,98.3l8.6-5.6l19.3,29.7l-6.6,4.3l-13.7-21
			c-0.5-0.7-0.9-1.6-1.4-2.5c-0.1,0.6-0.4,1.4-0.8,2.3c-0.4,0.9-0.8,2.1-1.4,3.3l-6.8-2.6L222.5,98.3z"/>
	</g>
	<g>
		<path class="st1" d="M218.6,60.1l7.7,11.8c0.4,0.6,1,1,1.7,1.2c0.7,0.1,1.4,0,2-0.4l16.7-10.8c0.6-0.4,1-1,1.1-1.7
			c0.1-0.4,0-0.9-0.1-1.3l-29.5-0.3C218.2,59.1,218.3,59.6,218.6,60.1z"/>
		<path class="st1" d="M247.1,92.8c-0.1,0.7,0,1.4,0.4,2l4.7,7.3V88.6l-4,2.6C247.6,91.5,247.2,92.1,247.1,92.8z"/>
		<path class="st1" d="M209.2,82.9l-0.4-0.6V86c0.3-0.3,0.7-0.6,0.8-1.1C209.8,84.2,209.6,83.5,209.2,82.9z"/>
		<path class="st1" d="M208.9,58.5v9.3l7,10.8c0.8,1.2,1.3,2.5,1.5,3.9s0.2,2.7,0,4.1c-0.3,1.3-0.8,2.6-1.6,3.8
			c-0.8,1.2-1.8,2.2-3,3l-3.9,2.5v12.3c0.2,0,43.3,25.8,43.3,25.8v-19.6c-0.2-0.1-0.5-0.2-0.8-0.3c-1.2-0.8-2.2-1.8-3-3l-7.7-11.8
			c-0.8-1.2-1.3-2.6-1.5-4s-0.2-2.8,0.1-4.1c0.3-1.3,0.8-2.6,1.6-3.7c0.7-1.2,1.7-2.1,2.9-2.9l8.2-5.4v-12c-0.4,0.4-0.7,0.9-1.3,1.2
			L234,79.2c-1.2,0.8-2.5,1.4-3.9,1.6s-2.7,0.2-4.1-0.1c-1.3-0.3-2.6-0.8-3.7-1.6c-1.2-0.8-2.2-1.8-3-3l-7.6-11.8
			c-0.8-1.2-1.3-2.6-1.5-4c-0.1-0.6,0.1-1.3,0.1-1.9L208.9,58.5z M222.5,98.3l8.6-5.6l19.3,29.7l-6.6,4.3l-13.7-21
			c-0.5-0.7-0.9-1.6-1.4-2.5c-0.1,0.6-0.4,1.4-0.8,2.3c-0.4,0.9-0.8,2.1-1.4,3.3l-6.8-2.6L222.5,98.3z"/>
	</g>
	<g>
		<path class="st0" d="M80.5,40.4c-0.1,0.7,0,1.4,0.4,2l7.7,11.8c0.4,0.6,1,1,1.7,1.2s1.4,0,2-0.4l11.1-7.2L84.5,36.9l-2.8,1.8
			C81.1,39.2,80.7,39.7,80.5,40.4z"/>
		<path class="st0" d="M121.8,67.7c0,0.2,0,0.3,0,0.5V67.7z"/>
		<path class="st0" d="M78.4,117.6c0.6-0.4,1-0.9,1.1-1.7c0.2-0.7,0-1.4-0.4-2l-7.6-11.8c-0.4-0.6-1-1-1.7-1.2c-0.7-0.1-1.4,0-2,0.4
			l-16.7,10.9c-0.6,0.4-1,0.9-1.1,1.7c-0.2,0.7,0,1.4,0.4,2l1.9,3l12.8,7.4L78.4,117.6z"/>
		<path class="st0" d="M74.1,35.8l-9,5.2l18.8,29l-6.7,4.3l-13.6-21c-0.5-0.7-0.9-1.5-1.4-2.5c-0.2,0.6-0.4,1.4-0.8,2.3
			C61,54,60.6,55.2,60,56.4l-6.8-2.6l2.7-7.5l-21,12.1v1.3L39,57c1.2-0.8,2.5-1.3,3.9-1.5s2.8-0.2,4.1,0.1s2.6,0.8,3.8,1.6
			s2.2,1.8,3,3L61.4,72c0.8,1.2,1.3,2.5,1.5,3.9s0.2,2.7,0,4.1c-0.3,1.3-0.8,2.6-1.6,3.8c-0.8,1.2-1.8,2.2-3,3L41.5,97.4
			c-1.2,0.8-2.5,1.3-3.9,1.5c-1,0.2-1.9,0-2.8,0v9.8l7.3,4.2c0-0.3,0-0.6,0.1-0.9c0.3-1.3,0.8-2.6,1.6-3.7c0.8-1.2,1.7-2.1,2.9-2.9
			l16.7-10.8c1.2-0.8,2.4-1.3,3.8-1.5s2.8-0.2,4.1,0.1c1.4,0.3,2.6,0.8,3.8,1.6c1.2,0.8,2.2,1.8,3,3l7.7,11.8
			c0.8,1.2,1.3,2.5,1.5,3.9s0.2,2.7,0,4.1c-0.3,1.3-0.8,2.6-1.6,3.8c-0.8,1.2-1.8,2.2-3,3l-9.9,6.4l5.6,3.2l43.5-25.1V99l-3.2,2.1
			l-13.6-21c-0.5-0.7-1-1.5-1.4-2.5c-0.2,0.6-0.4,1.4-0.8,2.3c-0.4,1-0.8,2.1-1.4,3.3l-6.8-2.6l2.8-7.9l8.6-5.6L122,91.6v-8.4
			l-6.2-9.6c-0.8-1.2-1.3-2.5-1.5-4c-0.2-1.4-0.2-2.8,0.1-4.1c0.3-1.3,0.9-2.6,1.6-3.7c0.8-1.2,1.7-2.1,2.9-2.9l1.7-1.1l-9.3-5.4
			l-14.5,9.4c-1.2,0.8-2.5,1.3-3.9,1.6c-1.4,0.2-2.7,0.2-4.1-0.1c-1.3-0.3-2.6-0.8-3.7-1.6c-1.2-0.8-2.2-1.8-3-3l-7.6-11.8
			c-0.8-1.2-1.3-2.6-1.5-4s-0.2-2.8,0.1-4.1C73.1,37.7,73.6,36.7,74.1,35.8z M89.1,78l19.3,29.7l-6.6,4.3L88.1,91
			c-0.5-0.7-0.9-1.6-1.4-2.5c-0.2,0.6-0.4,1.4-0.8,2.3s-0.8,2.1-1.4,3.3l-6.8-2.6l2.8-7.9L89.1,78z"/>
		<path class="st0" d="M37.2,90.8L53.9,80c0.6-0.4,1-0.9,1.1-1.7c0.1-0.7,0-1.4-0.4-2L47,64.5c-0.4-0.6-1-1-1.7-1.2s-1.4,0-2,0.4
			l-8.5,5.5v21.7c0.2,0.1,0.2,0.2,0.4,0.3C35.9,91.4,36.6,91.2,37.2,90.8z"/>
	</g>
	<g>
		<path class="st1" d="M37.2,90.8L53.9,80c0.6-0.4,1-0.9,1.1-1.7c0.1-0.7,0-1.4-0.4-2L47,64.5c-0.4-0.6-1-1-1.7-1.2s-1.4,0-2,0.4
			l-8.5,5.5v21.7c0.2,0.1,0.2,0.2,0.4,0.3C35.9,91.4,36.6,91.2,37.2,90.8z"/>
		<path class="st1" d="M78.1,112.4l-6.7-10.3c-0.4-0.6-1-1-1.7-1.2c-0.7-0.1-1.4,0-2,0.4L51,112.2c-0.6,0.4-1,0.9-1.1,1.7
			c-0.2,0.7,0,1.4,0.4,2l2,3l12.7,7.4l13.1-8.5C78.1,117.8,78.1,112.4,78.1,112.4z"/>
		<polygon class="st1" points="78.1,61.1 78.1,59.3 76.9,59.2 		"/>
		<polygon class="st1" points="78.1,127.2 72.7,130.7 78.1,133.9 		"/>
		<path class="st1" d="M42.3,112.1c0.3-1.3,0.8-2.6,1.6-3.7c0.8-1.2,1.7-2.1,2.9-2.9l16.7-10.8c1.2-0.8,2.4-1.3,3.8-1.5
			s2.8-0.2,4.1,0.1c1.4,0.3,2.6,0.8,3.8,1.6c1.2,0.8,2.2,1.8,3,3l0,0v-6.2l-0.5-0.2l0.5-1.5V73.7l-0.9,0.6l-9.9-15.2l-15-0.3
			c0.4,0.5,1,0.8,1.4,1.3l7.6,11.8c0.8,1.2,1.3,2.5,1.5,3.9s0.2,2.7,0,4.1c-0.3,1.3-0.8,2.6-1.6,3.8c-0.8,1.2-1.8,2.2-3,3L41.5,97.4
			c-1.2,0.8-2.5,1.3-3.9,1.5c-1,0.2-1.9,0-2.8,0v9.8l7.3,4.3C42.2,112.7,42.2,112.4,42.3,112.1z"/>
		<polygon class="st1" points="34.8,59.8 36.7,58.5 34.8,58.5 		"/>
	</g>
	<g>
		<path class="st0" d="M199.9,69.9c-0.7-0.1-1.4,0-2,0.4l-16.7,10.9c-0.6,0.4-1,1-1.1,1.7c-0.2,0.7,0,1.4,0.4,2l7.7,11.8
			c0.4,0.6,1,1,1.7,1.2s1.4,0,2-0.4l16.7-10.9c0.2-0.1,0.2-0.4,0.4-0.6v-3.7l-7.2-11.2C201.2,70.5,200.6,70.1,199.9,69.9z"/>
		<path class="st0" d="M129.9,80.9c0.4,0.6,1,1,1.7,1.2s1.4,0,2-0.4l16.7-10.9c0.6-0.4,1-1,1.1-1.7c0.2-0.7,0-1.4-0.4-2l-7.7-11.8
			c-0.4-0.6-1-1-1.7-1.2c-0.7-0.1-1.4,0-2,0.4L123,65.4c-0.6,0.4-1,1-1.1,1.7c0,0.2,0,0.4,0,0.6v0.6c0.1,0.3,0.2,0.6,0.4,0.9
			L129.9,80.9z"/>
		<path class="st0" d="M160,42.3c-0.2,0.7,0,1.4,0.4,2l7.6,11.8c0.4,0.6,1,1,1.7,1.2c0.7,0.1,1.4,0,2-0.4L188,46.4l-18.9-10.9
			l-7.9,5.1C160.6,41,160.2,41.6,160,42.3z"/>
		<path class="st0" d="M142.5,46.5c0.3,0,0.5,0,0.8,0c1.4,0.3,2.6,0.8,3.8,1.6s2.2,1.7,2.9,3l7.7,11.8c0.8,1.2,1.3,2.5,1.5,3.9
			s0.2,2.7,0,4.1c-0.3,1.3-0.8,2.6-1.6,3.8c-0.8,1.2-1.8,2.2-3,3l-16.7,10.8c-1.2,0.8-2.5,1.3-3.9,1.6c-1.4,0.2-2.7,0.2-4.1-0.1
			c-1.3-0.3-2.6-0.8-3.7-1.6c-1.2-0.8-2.1-1.8-2.9-3l-1.4-2.2v8.4l3.4,5.2l-3.4,2.2v9.9l1.1,0.7l7.4-4.8l9.4,14.5l25.5,14.7
			l43.5-25.8V95.8l-12.8,8.3c-1.2,0.8-2.5,1.3-3.9,1.5s-2.7,0.2-4.1-0.1c-1.3-0.3-2.6-0.8-3.7-1.6c-1.2-0.8-2.2-1.8-3-3l-7.6-11.8
			c-0.8-1.2-1.3-2.6-1.5-4s-0.2-2.8,0.1-4.1c0.3-1.3,0.8-2.6,1.6-3.7s1.7-2.1,2.9-2.9l16.7-10.8c1.2-0.8,2.5-1.2,3.9-1.5
			c1.4-0.2,2.8-0.2,4.1,0.1s2.6,0.8,3.8,1.6s2.2,1.8,2.9,3l0.6,1v-9.3l-13.8-8c-0.7,0.8-1.4,1.6-2.3,2.2l-16.6,10.8
			c-1.2,0.8-2.5,1.3-3.9,1.6c-1.4,0.2-2.7,0.2-4.1-0.1c-1.3-0.3-2.6-0.8-3.7-1.6c-1.2-0.8-2.2-1.8-3-3l-7.6-11.8
			c-0.8-1.2-1.3-2.5-1.5-4c-0.2-1.3-0.1-2.6,0.1-3.8L142.5,46.5z M159.9,127.7l-13.7-21c-0.5-0.7-0.9-1.5-1.4-2.5
			c-0.1,0.6-0.4,1.4-0.8,2.3c-0.4,0.9-0.8,2.1-1.4,3.3l-6.9-2.6l2.8-7.9l8.6-5.6l19.3,29.7L159.9,127.7z M164.1,82.7l19.3,29.7
			l-6.6,4.3l-13.7-21c-0.5-0.7-0.9-1.5-1.4-2.5c-0.2,0.6-0.4,1.4-0.8,2.3c-0.4,1-0.8,2.1-1.4,3.3l-6.8-2.6l2.8-7.9L164.1,82.7z"/>
	</g>
	<g>
		<path class="st1" d="M121.9,67.1c-0.1,0.2,0,0.4,0,0.6v0.4c0.1,0.3,0.2,0.6,0.4,0.9l7.7,11.8c0.4,0.6,1,1,1.7,1.2s1.4,0,2-0.4
			l16.7-10.9c0.6-0.4,1-1,1.1-1.7c0.2-0.7,0-1.4-0.4-2l-5.6-8.7h-11.7L123,65.4C122.4,65.8,122,66.4,121.9,67.1z"/>
		<path class="st1" d="M159.2,66.7c0.2,1.4,0.2,2.7,0,4.1c-0.3,1.3-0.8,2.6-1.6,3.8c-0.8,1.2-1.8,2.2-3,3l-16.7,10.8
			c-1.2,0.8-2.5,1.3-3.9,1.6c-1.4,0.2-2.7,0.2-4.1-0.1c-1.3-0.3-2.6-0.8-3.7-1.6c-1.2-0.8-2.1-1.8-2.9-3l-1.4-2.2v8.4l3.4,5.2
			l-3.4,2.2v9.9l1.2,0.7l16.9,9.8l25.3,14.7v-9.6l-5.3,3.4l-13.7-21c-0.5-0.7-0.9-1.5-1.4-2.5c-0.1,0.6-0.4,1.4-0.8,2.3
			c-0.4,0.9-0.8,2.1-1.4,3.3l-6.9-2.6l2.8-7.9l8.6-5.6l17.9,27.6V98.9l-2.1-3.2c-0.5-0.7-0.9-1.5-1.4-2.5c-0.2,0.6-0.4,1.4-0.8,2.3
			c-0.4,1-0.8,2.1-1.4,3.3l-6.8-2.6l2.8-7.9l8.6-5.6l1,1.6V63.8c-0.2-0.1-0.5-0.2-0.8-0.3c-1.2-0.8-2.2-1.8-3-3l-1.3-1.9h-5.3
			l2.8,4.4C158.5,64.1,159,65.4,159.2,66.7z"/>
	</g>
	<g>
		<path class="st0" d="M45.3,63.3c-0.6-0.1-1.1,0-1.5,0.2l4.1,2.4L47,64.5C46.6,63.9,46.1,63.5,45.3,63.3z"/>
		<path class="st0" d="M74.1,35.8l-9,5.2l18.8,29l-6.7,4.3l-13.6-21c-0.5-0.7-0.9-1.5-1.4-2.5c-0.2,0.6-0.4,1.4-0.8,2.3
			C61,54,60.6,55.2,60,56.4l-6.8-2.6l2.7-7.5l-21,12.1L36,59l3-1.9c1.2-0.8,2.5-1.3,3.9-1.5s2.8-0.2,4.1,0.1s2.6,0.8,3.8,1.6
			s2.2,1.8,3,3l7.6,11.8c0.5,0.7,0.8,1.5,1.1,2.2l15.9,9.2L99.7,71l6.2-4l0.2,0.3l9.6-5.5c0,0,0-0.1,0.1-0.1
			c0.8-1.2,1.7-2.1,2.9-2.9l1.8-1.2l-9.3-5.4l-14.5,9.4c-1.2,0.8-2.5,1.3-3.9,1.6c-1.4,0.2-2.7,0.2-4.1-0.1
			c-1.3-0.3-2.6-0.8-3.7-1.6c-1.2-0.8-2.2-1.8-3-3l-7.6-11.8c-0.8-1.2-1.3-2.6-1.5-4s-0.2-2.8,0.1-4.1
			C73.1,37.7,73.6,36.7,74.1,35.8z"/>
		<path class="st0" d="M80.5,40.4c-0.1,0.7,0,1.4,0.4,2l7.7,11.8c0.4,0.6,1,1,1.7,1.2s1.4,0,2-0.4l11.2-7.3l-19-10.8l-2.8,1.8
			C81.1,39.2,80.7,39.7,80.5,40.4z"/>
		<polygon class="st0" points="34.8,58.4 34.9,58.4 34.8,58.3 		"/>
	</g>
	<g>
		<path class="st0" d="M243.5,39.1c1.2,0.8,2.1,1.7,2.9,3l7.6,11.8c0.8,1.2,1.3,2.5,1.5,3.8c0.2,1.4,0.2,2.8,0,4.1
			c-0.3,1.3-0.8,2.6-1.6,3.8c-0.8,1.2-1.8,2.2-3,3l-11.5,7.5l9.4,5.4l11.8-7.7c1.2-0.8,2.5-1.3,3.8-1.5c1.4-0.2,2.7-0.2,4.1,0.1
			c0.7,0.1,1.4,0.3,2,0.6l4.2-2.4l0,0l2.8-7.9l8.7-5.6l3.3,5l3.5-2l-1.3-0.5l1-2.9l-20.8-11.9l4.7,7.2l-6.6,4.3L256.9,36l-2.6-1.5
			c-0.1,0.2-0.1,0.3-0.2,0.5c-0.4,0.9-0.8,2.1-1.3,3.4l-5.4-2.1l-4.5,2.6C243.1,38.9,243.3,38.9,243.5,39.1z"/>
		<path class="st0" d="M246.7,61.8c0.6-0.4,1-1,1.1-1.7c0.2-0.7,0-1.4-0.4-2l-7.7-11.8c-0.4-0.6-1-1-1.7-1.2c-0.7-0.1-1.4,0-2,0.4
			l-16.7,10.8c-0.6,0.4-1,1-1.1,1.7c-0.2,0.7,0,1.4,0.4,2l4,6.1l9.2,5.3L246.7,61.8z"/>
		<polygon class="st0" points="208.9,58.4 208.9,58.4 208.9,58.3 		"/>
		<path class="st0" d="M210.5,59.2c0-0.6,0-1.2,0.1-1.8l-1.6,0.9L210.5,59.2z"/>
	</g>
	<g>
		<path class="st0" d="M143.4,55.4c-0.4-0.6-1-1-1.7-1.2c-0.7-0.1-1.4,0-2,0.4L128.3,62l18.9,10.9l3.1-2c0.6-0.4,1-1,1.1-1.7
			c0.2-0.7,0-1.4-0.4-2L143.4,55.4z"/>
		<path class="st0" d="M160,42.3c-0.2,0.7,0,1.4,0.4,2l7.6,11.8c0.4,0.6,1,1,1.7,1.2c0.7,0.1,1.4,0,2-0.4L188,46.4l-18.9-10.9
			l-7.9,5.1C160.6,41,160.2,41.6,160,42.3z"/>
		<polygon class="st0" points="208.9,58.3 208.8,58.4 208.9,58.4 		"/>
		<path class="st0" d="M142.5,46.5c0.3,0,0.6,0,0.9,0c1.4,0.3,2.6,0.8,3.8,1.6s2.2,1.7,2.9,3l7.7,11.8c0.8,1.2,1.3,2.5,1.5,3.9
			s0.2,2.7,0,4.1c-0.3,1.3-0.8,2.6-1.6,3.8c-0.7,1.1-1.7,2-2.8,2.7l10.5,6l8.1-4.6c0.2-0.4,0.3-0.9,0.6-1.3c0.8-1.1,1.7-2.1,2.9-2.9
			l16.7-10.8c1.2-0.8,2.5-1.2,3.9-1.5c1.4-0.2,2.8-0.2,4.1,0.1c0.1,0,0.2,0.1,0.3,0.1l7-4l-13.7-7.9c-0.7,0.8-1.4,1.7-2.3,2.3
			l-16.6,10.8c-1.2,0.8-2.5,1.3-3.9,1.6c-1.4,0.2-2.7,0.2-4.1-0.1c-1.3-0.3-2.6-0.8-3.7-1.6c-1.2-0.8-2.2-1.8-3-3l-7.6-11.8
			c-0.8-1.2-1.3-2.5-1.5-4c-0.2-1.3-0.1-2.6,0.1-3.8L142.5,46.5z"/>
	</g>
	<polygon class="st0" points="22.3,144.2 62.5,144.2 62.5,155.4 37.2,155.4 37.2,166.2 61,166.2 61,177.4 37.2,177.4 37.2,190.7 
		63.4,190.7 63.4,201.9 22.3,201.9 	"/>
	<path class="st0" d="M76.5,144.2h14.9v34.6c0,4.8,0.8,8.2,2.3,10.2c1.6,2,4.1,3.1,7.6,3.1c3.6,0,6.1-1,7.7-3.1
		c1.6-2,2.3-5.5,2.3-10.2v-34.6h14.9v34.6c0,8.2-2.1,14.3-6.2,18.3s-10.4,6-18.8,6s-14.6-2-18.7-6s-6.2-10.1-6.2-18.3v-34.6H76.5z"
		/>
	<path class="st0" d="M140.8,144.2h15.7c8.8,0,15.3,0.6,19.6,1.9c4.3,1.2,8,3.4,11,6.4c2.7,2.6,4.7,5.6,6,9s2,7.3,2,11.6
		c0,4.4-0.7,8.2-2,11.7c-1.3,3.4-3.3,6.4-6,9c-3.1,3-6.8,5.1-11.1,6.4c-4.3,1.2-10.8,1.9-19.5,1.9h-15.7V144.2z M155.7,155.4v35.3
		h5.3c6.1,0,10.7-1.5,14-4.5c3.2-3,4.8-7.4,4.8-13.2c0-5.7-1.6-10.1-4.8-13.1s-7.9-4.5-14-4.5H155.7z"/>
	<path class="st0" d="M241.7,191.4h-23.3l-3.7,10.5h-15l21.4-57.8h17.8l21.4,57.8h-15L241.7,191.4z M222.1,180.7H238l-7.9-23
		L222.1,180.7z"/>
	<polygon class="st0" points="254.9,144.2 308.2,144.2 308.2,155.4 289,155.4 289,201.9 274.1,201.9 274.1,155.4 254.9,155.4 	"/>
	<path class="st2" d="M295.8,56.3l-43.4-25l-41.8,24v-0.1l-1.8,1l-1.7-0.9l0,0l-41.8-24l-43.4,25l0,0l-1.8-1l0,0l-41.8-24l-43.5,25
		L33,55.4v1.9l-1.7,1l1.7,1l0.1,2.1l1.8-1l43.4,25l41.8-24v0.1l1.8-1.1l0.3,0.2l43.1,24.8l41.8-24v0.1l1.8-1l1.7,0.9l0,0l41.8,24
		l43.5-25l1.8,1v-6.1L295.8,56.3z M78.3,81.3l-39.9-23l39.9-23L118,58.2l-0.1,0.1l0.2,0.1L78.3,81.3z M165.3,81.3l-39.9-23l39.9-23
		l39.9,23L165.3,81.3z M252.4,81.3l-39.9-23l39.9-23l39.9,23L252.4,81.3z"/>
	<g>
		<path class="st0" d="M367.6,127.2c-4.8,4.8-10.8,7.1-17.1,7.1c-16.3,0-24.4-10.9-24.5-24c-0.1-12.8,8.1-24.5,24.5-24.5
			c6.3,0,12.6,2.2,16.7,7.1l-2.9,2.9c-3.8-3.8-8.7-5.6-13.8-5.6c-13.1,0-19.8,9.7-19.8,20.1c0,11,6.7,19.7,19.8,19.7
			c5,0,10.4-2,14.1-5.8L367.6,127.2z"/>
		<path class="st0" d="M405.4,117.1c0,10.3-7.3,17.1-17.1,17.1c-9.7,0-17.1-6.8-17.1-17.1s7.1-17.3,17.1-17.3
			C398,99.8,405.4,106.8,405.4,117.1z M375.7,117.1c0,7.7,5.2,12.8,12.6,12.8c7.5,0,12.6-5.1,12.6-12.8s-5.2-13.2-12.6-13.2
			C380.9,103.9,375.7,109.4,375.7,117.1z"/>
		<path class="st0" d="M417,86.5v47.1h-4.5V86.5H417z"/>
		<path class="st0" d="M430.8,86.5v47.1h-4.5V86.5H430.8z"/>
		<path class="st0" d="M467.9,100.4h4.2c0,11.1,0,22.1,0,33.2H468V127c-2.9,4.9-8.2,7.3-13.2,7.3c-9.4,0-16.9-6.7-16.9-17.3
			c0-10.5,7.6-17.1,17-17.1c5.1,0,10.6,2.4,13,7.1V100.4z M442.4,117c0,7.9,5.6,13,12.6,13c17.1,0,17.1-26,0-26
			C448,104,442.4,109.2,442.4,117z"/>
		<path class="st0" d="M485.6,86.5V107c2.5-4.9,7.9-7.2,13-7.2c9.3,0,16.7,6.1,16.7,17.2c0,11-7.3,17.2-16.7,17.2
			c-5.2,0-10-1.7-13-7l-0.3,6.4h-4.2V86.5H485.6z M485.7,116.9c0,7.7,5.4,13,12.6,13c6.9,0,12.5-4.6,12.5-12.9
			c0-8.5-5.6-12.9-12.5-12.9C491.3,104.1,485.7,109.3,485.7,116.9z"/>
		<path class="st0" d="M554.6,117.1c0,10.3-7.3,17.1-17.1,17.1c-9.7,0-17.1-6.8-17.1-17.1s7.1-17.3,17.1-17.3
			C547.2,99.8,554.6,106.8,554.6,117.1z M524.9,117.1c0,7.7,5.2,12.8,12.6,12.8c7.5,0,12.6-5.1,12.6-12.8s-5.2-13.2-12.6-13.2
			C530.1,103.9,524.9,109.4,524.9,117.1z"/>
		<path class="st0" d="M565.8,100.4l0.3,5.4c2.2-4.4,6.6-6,10.6-6c3,0,5.1,0.7,7.5,2.4l-2.1,3.8c-1.7-1.1-3.6-1.7-5.7-1.7
			c-5.7,0.1-10.3,4.4-10.3,10.5v18.9h-4.5v-33.2h4.2V100.4z"/>
		<path class="st0" d="M615.3,100.4h4.2c0,11.1,0,22.1,0,33.2h-4.2V127c-2.9,4.9-8.2,7.3-13.2,7.3c-9.4,0-16.9-6.7-16.9-17.3
			c0-10.5,7.6-17.1,17-17.1c5.1,0,10.6,2.4,13,7.1v-6.6H615.3z M589.7,117c0,7.9,5.6,13,12.6,13c17.1,0,17.1-26,0-26
			C595.4,104,589.7,109.2,589.7,117z"/>
		<path class="st0" d="M636.4,90.6v9.9h10.8v3.8h-10.8V123c0,4.2,1.1,6.9,5.6,6.9c1.5,0,3.2-0.5,4.8-1.3l1.4,3.8
			c-2.2,1-4.2,1.6-6.4,1.6c-7.1,0.1-10-4.1-10-11v-18.8H625v-3.8h6.8V91L636.4,90.6z"/>
		<path class="st0" d="M658.8,90c0,4.2-6.4,4.2-6.4,0C652.4,85.7,658.8,85.7,658.8,90z M653.2,100.2v33.4h4.5v-33.4
			C657.7,100.2,653.2,100.2,653.2,100.2z"/>
		<path class="st0" d="M696.2,100.4l-14,33.3h-5l-14-33.3h5l11.5,28.3l11.5-28.3C691.2,100.4,696.2,100.4,696.2,100.4z"/>
		<path class="st0" d="M702.8,118.9c0.6,6.9,6,11,12.6,11c4,0,8.9-1.6,11.2-4.6l3,2.7c-3.3,4.1-9,6.2-14.3,6.2
			c-9.9,0-17.2-6.7-17.2-17.3c0-10,7.1-17.1,17-17.1s17.8,6,16.5,19.1C731.6,118.9,702.8,118.9,702.8,118.9z M727.4,115
			c-0.1-7.3-5.6-11.2-12.2-11.2c-6.7,0-11.6,4-12.4,11.2H727.4z"/>
		<path class="st0" d="M345.5,154.8c15.9,0,23.6,11.4,23.6,23.1c0,11.9-7.1,24-23.6,24c-5.4,0-11.2,0-16.6,0v-47.1L345.5,154.8
			L345.5,154.8z M333.6,197.5h11.9c13.1,0,19-10.2,18.8-19.7c-0.2-9.1-6.1-18.6-18.8-18.6h-11.9V197.5z"/>
		<path class="st0" d="M404.8,168.6h4.2c0,11.1,0,22.1,0,33.2h-4.2v-6.6c-2.9,4.9-8.2,7.3-13.2,7.3c-9.4,0-16.9-6.7-16.9-17.3
			c0-10.5,7.6-17.1,17-17.1c5.1,0,10.6,2.4,13,7.1v-6.6H404.8z M379.2,185.2c0,7.9,5.6,13,12.6,13c17.1,0,17.1-26,0-26
			C384.9,172.2,379.2,177.4,379.2,185.2z"/>
		<path class="st0" d="M426,158.8v9.9h10.8v3.8H426v18.8c0,4.2,1.1,6.9,5.6,6.9c1.5,0,3.2-0.5,4.8-1.3l1.4,3.8
			c-2.2,1-4.2,1.6-6.4,1.6c-7.1,0.1-10-4.1-10-11v-18.8h-6.8v-3.8h6.8v-9.4L426,158.8z"/>
		<path class="st0" d="M469.3,168.6h4.2c0,11.1,0,22.1,0,33.2h-4.2v-6.6c-2.9,4.9-8.2,7.3-13.2,7.3c-9.4,0-16.9-6.7-16.9-17.3
			c0-10.5,7.6-17.1,17-17.1c5.1,0,10.6,2.4,13,7.1v-6.6H469.3z M443.8,185.2c0,7.9,5.6,13,12.6,13c17.1,0,17.1-26,0-26
			C449.4,172.2,443.8,177.4,443.8,185.2z"/>
		<path class="st0" d="M502.9,201.8v-47.1h4.7v47.1L502.9,201.8L502.9,201.8z"/>
		<path class="st0" d="M543.9,201.8v-18.6c0-7.1-4.2-10.9-10.8-10.9c-6.5,0.1-10.9,5-10.9,11.4v18.1h-4.5v-33.2h4.3l0.1,5.6
			c2.8-4.2,7.1-6.1,11.6-6.1c8.6,0,14.8,5.1,14.8,15.1v18.7h-4.6V201.8z"/>
		<path class="st0" d="M559.1,201.8v-29h-6.6V169h6.6v-2.8c0-7.2,3.5-11.8,10.6-11.8c2.6,0,5,0.9,7.1,2.4l-1.9,3.4
			c-1.8-1.1-3.2-1.7-5.1-1.7c-3.8,0-6.2,2.4-6.2,7.7v2.8h10.6v3.9h-10.6v29L559.1,201.8L559.1,201.8z"/>
		<path class="st0" d="M583.5,168.6l0.3,5.4c2.2-4.4,6.6-6,10.6-6c3,0,5.1,0.7,7.5,2.4l-2.1,3.8c-1.7-1.1-3.6-1.7-5.7-1.7
			c-5.7,0.1-10.3,4.4-10.3,10.5v18.9h-4.5v-33.2L583.5,168.6L583.5,168.6z"/>
		<path class="st0" d="M633,168.6h4.2c0,11.1,0,22.1,0,33.2H633v-6.6c-2.9,4.9-8.2,7.3-13.2,7.3c-9.4,0-16.9-6.7-16.9-17.3
			c0-10.5,7.6-17.1,17-17.1c5.1,0,10.6,2.4,13,7.1v-6.6H633z M607.4,185.2c0,7.9,5.6,13,12.6,13c17.1,0,17.1-26,0-26
			C613.1,172.2,607.4,177.4,607.4,185.2z"/>
		<path class="st0" d="M667.9,175.4c-3.1-2.8-6.3-3.4-9.8-3.4c-4.8-0.1-9.1,1.7-9,5.4c0.1,3.9,4.9,4.8,9.1,5.4
			c6,0.9,13.7,1.9,13.7,10c-0.1,7-6.9,9.7-13.7,9.7c-5.7,0-11.4-1.9-14.7-6.5l2.8-3.1c2.8,3.8,7.7,5.3,12,5.4c3.8,0,9.1-1.1,9.1-5.6
			c0-4.4-4.3-5.2-9.6-5.9c-6.4-0.9-13-2.4-13.1-9.3c0-6.8,6.9-9.7,13.4-9.6c5,0,9.1,1.3,12.5,4.5L667.9,175.4z"/>
		<path class="st0" d="M686.9,158.8v9.9h10.8v3.8h-10.8v18.8c0,4.2,1.1,6.9,5.6,6.9c1.5,0,3.2-0.5,4.8-1.3l1.4,3.8
			c-2.2,1-4.2,1.6-6.4,1.6c-7.1,0.1-10-4.1-10-11v-18.8h-6.8v-3.8h6.8v-9.4L686.9,158.8z"/>
		<path class="st0" d="M708,168.6l0.3,5.4c2.2-4.4,6.6-6,10.6-6c3,0,5.1,0.7,7.5,2.4l-2.1,3.8c-1.7-1.1-3.6-1.7-5.7-1.7
			c-5.7,0.1-10.3,4.4-10.3,10.5v18.9h-4.5v-33.2L708,168.6L708,168.6z"/>
		<path class="st0" d="M735.3,168.6v18.6c0,6.9,4.2,10.9,10.9,10.8c6.4,0,10.9-5,10.9-11.4v-18.1h4.4v33.2h-4.2l-0.1-5.6
			c-2.8,4.2-7.1,6.1-11.8,6.1c-8.6,0-14.7-5.6-14.7-15.1v-18.7h4.6V168.6z"/>
		<path class="st0" d="M798,197.3c-3.5,3.4-7.8,5-12.3,5c-9.4,0-17.2-6.3-17.2-17.1s7.6-17.1,17.2-17.1c4.4,0,8.3,1.5,11.8,4.9
			l-3,2.9c-2.5-2.4-5.5-3.6-8.7-3.6c-7.1,0-12.8,4.7-12.8,12.8c0,8.3,5.8,12.8,12.7,12.8c3.4,0,6.7-1.3,9.2-3.8L798,197.3z"/>
		<path class="st0" d="M813.2,158.8v9.9H824v3.8h-10.8v18.8c0,4.2,1.1,6.9,5.6,6.9c1.5,0,3.2-0.5,4.8-1.3l1.4,3.8
			c-2.2,1-4.2,1.6-6.4,1.6c-7.1,0.1-10-4.1-10-11v-18.8h-6.8v-3.8h6.8v-9.4L813.2,158.8z"/>
		<path class="st0" d="M833.7,168.6v18.6c0,6.9,4.2,10.9,10.9,10.8c6.4,0,10.9-5,10.9-11.4v-18.1h4.4v33.2h-4.2l-0.1-5.6
			c-2.8,4.2-7.1,6.1-11.8,6.1c-8.6,0-14.7-5.6-14.7-15.1v-18.7h4.6V168.6z"/>
		<path class="st0" d="M873,168.6l0.3,5.4c2.2-4.4,6.6-6,10.6-6c3,0,5.1,0.7,7.5,2.4l-2.1,3.8c-1.7-1.1-3.6-1.7-5.7-1.7
			c-5.7,0.1-10.3,4.4-10.3,10.5v18.9h-4.5v-33.2L873,168.6L873,168.6z"/>
		<path class="st0" d="M897.1,187.1c0.6,6.9,6,11,12.6,11c4,0,8.9-1.6,11.2-4.6l3,2.7c-3.3,4.1-9,6.2-14.3,6.2
			c-9.9,0-17.2-6.7-17.2-17.3c0-10,7.1-17.1,17-17.1s17.8,6,16.5,19.1L897.1,187.1L897.1,187.1z M921.8,183.3
			c-0.1-7.3-5.6-11.2-12.2-11.2c-6.7,0-11.6,4-12.4,11.2H921.8z"/>
	</g>
	<g>
		<path class="st0" d="M21.6,224c0-0.2,0.1-0.4,0.4-0.4h8.2c4.2,0,6.8,1.7,7.9,5.2c0.4,1.3,0.6,3.6,0.6,6.9c0,3.3-0.2,5.6-0.6,6.9
			c-1.1,3.5-3.7,5.2-7.9,5.2H22c-0.2,0-0.4-0.1-0.4-0.4V224z M24.8,244.7c0,0.1,0.1,0.2,0.2,0.2h4.4c3,0,4.8-1.1,5.5-3.3
			c0.3-0.9,0.5-2.9,0.5-5.8c0-3-0.2-4.9-0.5-5.8c-0.7-2.2-2.6-3.3-5.5-3.3H25c-0.1,0-0.2,0.1-0.2,0.2V244.7z"/>
		<path class="st0" d="M54.1,247.9c-0.2,0-0.4-0.1-0.4-0.4V246l0,0c-0.9,1.5-2.6,2.2-5.1,2.2c-3.4,0-5.7-1.8-5.7-5.1
			c0-3.5,2.4-5.3,6.7-5.3h3.9c0.1,0,0.2-0.1,0.2-0.2v-1.2c0-2.4-1-3.3-4.1-3.3c-1.6,0-3,0.4-4.1,1.2c-0.2,0.2-0.4,0.1-0.5,0l-1-1.6
			c-0.1-0.2-0.1-0.4,0.1-0.5c1.4-1.1,3.3-1.7,5.8-1.7c4.8,0,6.7,1.6,6.7,5.8v11.3c0,0.2-0.1,0.4-0.4,0.4L54.1,247.9L54.1,247.9z
			 M53.6,242.4v-1.9c0-0.1-0.1-0.2-0.2-0.2H50c-3,0-4.2,0.8-4.2,2.8c0,1.8,1.2,2.7,3.6,2.7C52,245.7,53.6,244.5,53.6,242.4z"/>
		<path class="st0" d="M67.2,248.1c-3.3,0-4.6-1.5-4.6-4.8v-9.8c0-0.1-0.1-0.2-0.2-0.2H61c-0.2,0-0.4-0.1-0.4-0.4v-1.7
			c0-0.2,0.1-0.4,0.4-0.4h1.4c0.1,0,0.2-0.1,0.2-0.2v-4.8c0-0.2,0.1-0.4,0.4-0.4h2.3c0.2,0,0.4,0.1,0.4,0.4v4.8
			c0,0.1,0.1,0.2,0.2,0.2h2.7c0.2,0,0.4,0.1,0.4,0.4v1.7c0,0.2-0.1,0.4-0.4,0.4h-2.7c-0.1,0-0.2,0.1-0.2,0.2v9.6
			c0,1.7,0.6,2.2,2.2,2.2h0.7c0.2,0,0.4,0.1,0.4,0.4v2.1c0,0.2-0.1,0.4-0.4,0.4L67.2,248.1L67.2,248.1z"/>
		<path class="st0" d="M84,247.9c-0.2,0-0.4-0.1-0.4-0.4V246l0,0c-0.9,1.5-2.6,2.2-5.1,2.2c-3.4,0-5.7-1.8-5.7-5.1
			c0-3.5,2.4-5.3,6.7-5.3h3.9c0.1,0,0.2-0.1,0.2-0.2v-1.2c0-2.4-1-3.3-4.1-3.3c-1.6,0-3,0.4-4.1,1.2c-0.2,0.2-0.4,0.1-0.5,0l-1-1.6
			c-0.1-0.2-0.1-0.4,0.1-0.5c1.4-1.1,3.3-1.7,5.8-1.7c4.8,0,6.7,1.6,6.7,5.8v11.3c0,0.2-0.1,0.4-0.4,0.4L84,247.9L84,247.9z
			 M83.5,242.4v-1.9c0-0.1-0.1-0.2-0.2-0.2h-3.4c-3,0-4.2,0.8-4.2,2.8c0,1.8,1.2,2.7,3.6,2.7C81.9,245.7,83.5,244.5,83.5,242.4z"/>
		<path class="st0" d="M100.9,245.7c-0.2-0.2-0.2-0.3,0-0.5l1.5-1.6c0.2-0.2,0.3-0.2,0.5,0c1.5,1.3,3.3,2,5.3,2c2.4,0,3.7-1,3.7-2.6
			c0-1.4-0.7-2.1-3.3-2.4l-1.8-0.2c-3.4-0.4-5.1-2-5.1-4.8c0-3.3,2.3-5.2,6.3-5.2c2.3,0,4.4,0.6,6.1,1.9c0.2,0.1,0.2,0.3,0.1,0.5
			l-1.2,1.5c-0.1,0.2-0.3,0.2-0.5,0.1c-1.4-0.9-3-1.4-4.6-1.4c-2.1,0-3.2,0.9-3.2,2.3c0,1.4,0.9,2.1,3.3,2.3l1.8,0.2
			c3.4,0.3,5.1,2,5.1,4.8c0,3.4-2.5,5.6-6.9,5.6C105.3,248.3,102.9,247.4,100.9,245.7z"/>
		<path class="st0" d="M130.4,247.9c-0.2,0-0.4-0.1-0.4-0.4v-10c0-2.9-1.3-4.3-3.8-4.3c-2.3,0-3.9,1.6-3.9,4.2v10.1
			c0,0.2-0.1,0.4-0.4,0.4h-2.3c-0.2,0-0.4-0.1-0.4-0.4V224c0-0.2,0.1-0.4,0.4-0.4h2.3c0.2,0,0.4,0.1,0.4,0.4v8.7l0,0
			c1-1.5,2.5-2.3,4.8-2.3c3.7,0,5.9,2.5,5.9,6.4v10.7c0,0.2-0.1,0.4-0.4,0.4L130.4,247.9L130.4,247.9z"/>
		<path class="st0" d="M148.8,247.9c-0.2,0-0.4-0.1-0.4-0.4V246l0,0c-0.9,1.5-2.6,2.2-5.1,2.2c-3.4,0-5.7-1.8-5.7-5.1
			c0-3.5,2.4-5.3,6.7-5.3h3.9c0.1,0,0.2-0.1,0.2-0.2v-1.2c0-2.4-1-3.3-4.1-3.3c-1.6,0-3,0.4-4.1,1.2c-0.2,0.2-0.4,0.1-0.5,0l-1-1.6
			c-0.1-0.2-0.1-0.4,0.1-0.5c1.4-1.1,3.3-1.7,5.8-1.7c4.8,0,6.7,1.6,6.7,5.8v11.3c0,0.2-0.1,0.4-0.4,0.4L148.8,247.9L148.8,247.9z
			 M148.4,242.4v-1.9c0-0.1-0.1-0.2-0.2-0.2h-3.4c-3,0-4.2,0.8-4.2,2.8c0,1.8,1.2,2.7,3.6,2.7C146.7,245.7,148.4,244.5,148.4,242.4z
			"/>
		<path class="st0" d="M157.2,247.9c-0.2,0-0.4-0.1-0.4-0.4v-16.3c0-0.2,0.1-0.4,0.4-0.4h2.3c0.2,0,0.4,0.1,0.4,0.4v1.7l0,0
			c0.9-1.7,2.3-2.5,4.5-2.5c1.4,0,2.6,0.4,3.5,1.3c0.2,0.2,0.2,0.3,0.1,0.5l-1.3,1.7c-0.1,0.2-0.3,0.2-0.5,0.1
			c-0.9-0.5-1.7-0.8-2.6-0.8c-2.5,0-3.7,1.7-3.7,5v9.3c0,0.2-0.1,0.4-0.4,0.4H157.2z"/>
		<path class="st0" d="M171.1,243.6c-0.4-1.2-0.6-2.6-0.6-4.3c0-1.9,0.2-3.3,0.5-4.3c1-3,3.4-4.6,6.7-4.6s5.7,1.7,6.7,4.6
			c0.4,1.1,0.5,2.7,0.5,4.9c0,0.3-0.1,0.4-0.4,0.4h-10.8c-0.1,0-0.2,0.1-0.2,0.2c0,0.7,0.1,1.5,0.3,2.1c0.7,2,2.1,3,4.3,3
			c1.8,0,3.3-0.6,4.4-1.9c0.2-0.2,0.4-0.2,0.5-0.1l1.5,1.3c0.2,0.1,0.2,0.3,0,0.5c-1.5,2-3.8,2.9-6.7,2.9
			C174.5,248.3,172.1,246.6,171.1,243.6z M181.7,237.9c0.1,0,0.2-0.1,0.2-0.2c0-0.8-0.1-1.4-0.2-1.9c-0.6-1.8-1.9-2.7-3.9-2.7
			s-3.3,0.9-3.9,2.7c-0.2,0.5-0.2,1.1-0.2,1.9c0,0.1,0.1,0.2,0.2,0.2H181.7z"/>
		<path class="st0" d="M200.8,247.9c-0.2,0-0.4-0.1-0.4-0.4v-1.6l0,0c-1,1.6-2.6,2.4-4.8,2.4c-3.1,0-5-1.4-5.9-4.1
			c-0.4-1.2-0.6-2.8-0.6-4.8s0.2-3.6,0.6-4.8c0.9-2.7,2.8-4.1,5.9-4.1c2.3,0,3.9,0.8,4.8,2.3l0,0V224c0-0.2,0.1-0.4,0.4-0.4h2.3
			c0.2,0,0.4,0.1,0.4,0.4v23.5c0,0.2-0.1,0.4-0.4,0.4H200.8z M200.1,242.9c0.2-0.7,0.4-2,0.4-3.6s-0.1-2.8-0.4-3.6
			c-0.6-1.7-1.8-2.6-3.8-2.6c-1.9,0-3.1,0.9-3.7,2.6c-0.2,0.9-0.4,2-0.4,3.6s0.1,2.7,0.4,3.6c0.6,1.7,1.9,2.6,3.7,2.6
			C198.2,245.5,199.5,244.6,200.1,242.9z"/>
		<path class="st0" d="M229.4,247.9c-0.2,0-0.4-0.1-0.4-0.4V246l0,0c-0.9,1.5-2.6,2.2-5.1,2.2c-3.4,0-5.7-1.8-5.7-5.1
			c0-3.5,2.4-5.3,6.7-5.3h3.9c0.1,0,0.2-0.1,0.2-0.2v-1.2c0-2.4-1-3.3-4.1-3.3c-1.6,0-3,0.4-4.1,1.2c-0.2,0.2-0.4,0.1-0.5,0l-1-1.6
			c-0.1-0.2-0.1-0.4,0.1-0.5c1.4-1.1,3.3-1.7,5.8-1.7c4.8,0,6.7,1.6,6.7,5.8v11.3c0,0.2-0.1,0.4-0.4,0.4L229.4,247.9L229.4,247.9z
			 M228.9,242.4v-1.9c0-0.1-0.1-0.2-0.2-0.2h-3.4c-3,0-4.2,0.8-4.2,2.8c0,1.8,1.2,2.7,3.6,2.7C227.3,245.7,228.9,244.5,228.9,242.4z
			"/>
		<path class="st0" d="M248.5,247.9c-0.2,0-0.4-0.1-0.4-0.4v-10c0-2.9-1.3-4.3-3.8-4.3c-2.3,0-3.9,1.6-3.9,4.2v10.1
			c0,0.2-0.1,0.4-0.4,0.4h-2.3c-0.2,0-0.4-0.1-0.4-0.4v-16.3c0-0.2,0.1-0.4,0.4-0.4h2.3c0.2,0,0.4,0.1,0.4,0.4v1.6l0,0
			c1-1.5,2.5-2.3,4.8-2.3c3.7,0,5.9,2.5,5.9,6.4v10.7c0,0.2-0.1,0.4-0.4,0.4L248.5,247.9L248.5,247.9z"/>
		<path class="st0" d="M267.6,247.9c-0.2,0-0.4-0.1-0.4-0.4v-1.6l0,0c-1,1.6-2.6,2.4-4.8,2.4c-3.1,0-5-1.4-5.9-4.1
			c-0.4-1.2-0.6-2.8-0.6-4.8s0.2-3.6,0.6-4.8c0.9-2.7,2.8-4.1,5.9-4.1c2.3,0,3.9,0.8,4.8,2.3l0,0V224c0-0.2,0.1-0.4,0.4-0.4h2.3
			c0.2,0,0.4,0.1,0.4,0.4v23.5c0,0.2-0.1,0.4-0.4,0.4H267.6z M266.9,242.9c0.2-0.7,0.4-2,0.4-3.6s-0.1-2.8-0.4-3.6
			c-0.6-1.7-1.8-2.6-3.8-2.6c-1.9,0-3.1,0.9-3.7,2.6c-0.2,0.9-0.4,2-0.4,3.6s0.1,2.7,0.4,3.6c0.6,1.7,1.9,2.6,3.7,2.6
			C265,245.5,266.3,244.6,266.9,242.9z"/>
		<path class="st0" d="M286.2,254.3c-0.2,0-0.4-0.1-0.4-0.4v-22.7c0-0.2,0.1-0.4,0.4-0.4h2.3c0.2,0,0.4,0.1,0.4,0.4v1.6l0,0
			c1-1.6,2.6-2.3,4.8-2.3c3.1,0,5,1.4,5.9,4.1c0.4,1.2,0.6,2.8,0.6,4.8s-0.2,3.7-0.6,4.8c-0.9,2.7-2.8,4.1-5.9,4.1
			c-2.2,0-3.9-0.8-4.8-2.4l0,0v8c0,0.2-0.1,0.4-0.4,0.4L286.2,254.3L286.2,254.3z M296.7,242.9c0.2-0.8,0.4-2,0.4-3.6
			c0-1.5-0.1-2.7-0.4-3.6c-0.6-1.7-1.9-2.6-3.7-2.6c-2,0-3.2,0.9-3.8,2.6c-0.2,0.8-0.4,2-0.4,3.6s0.1,2.8,0.4,3.6
			c0.6,1.7,1.8,2.6,3.8,2.6C294.9,245.5,296.1,244.6,296.7,242.9z"/>
		<path class="st0" d="M305.5,247.9c-0.2,0-0.4-0.1-0.4-0.4v-16.3c0-0.2,0.1-0.4,0.4-0.4h2.3c0.2,0,0.4,0.1,0.4,0.4v1.7l0,0
			c0.9-1.7,2.3-2.5,4.5-2.5c1.4,0,2.6,0.4,3.5,1.3c0.2,0.2,0.2,0.3,0.1,0.5l-1.3,1.7c-0.1,0.2-0.3,0.2-0.5,0.1
			c-0.9-0.5-1.7-0.8-2.6-0.8c-2.5,0-3.7,1.7-3.7,5v9.3c0,0.2-0.1,0.4-0.4,0.4H305.5z"/>
		<path class="st0" d="M319.4,243.6c-0.4-1.2-0.6-2.6-0.6-4.3c0-1.9,0.2-3.3,0.5-4.3c1-3,3.4-4.6,6.7-4.6s5.7,1.7,6.7,4.6
			c0.4,1.1,0.5,2.7,0.5,4.9c0,0.3-0.1,0.4-0.4,0.4H322c-0.1,0-0.2,0.1-0.2,0.2c0,0.7,0.1,1.5,0.3,2.1c0.7,2,2.1,3,4.3,3
			c1.8,0,3.3-0.6,4.4-1.9c0.2-0.2,0.4-0.2,0.5-0.1l1.5,1.3c0.2,0.1,0.2,0.3,0,0.5c-1.5,2-3.8,2.9-6.7,2.9
			C322.7,248.3,320.3,246.6,319.4,243.6z M330,237.9c0.1,0,0.2-0.1,0.2-0.2c0-0.8-0.1-1.4-0.2-1.9c-0.6-1.8-1.9-2.7-3.9-2.7
			s-3.3,0.9-3.9,2.7c-0.2,0.5-0.2,1.1-0.2,1.9c0,0.1,0.1,0.2,0.2,0.2H330z"/>
		<path class="st0" d="M337.3,245.7c-0.2-0.2-0.2-0.3,0-0.5l1.5-1.6c0.2-0.2,0.3-0.2,0.5,0c1.5,1.3,3.3,2,5.3,2c2.4,0,3.7-1,3.7-2.6
			c0-1.4-0.7-2.1-3.3-2.4l-1.8-0.2c-3.4-0.4-5.1-2-5.1-4.8c0-3.3,2.3-5.2,6.3-5.2c2.3,0,4.4,0.6,6.1,1.9c0.2,0.1,0.2,0.3,0.1,0.5
			l-1.2,1.5c-0.1,0.2-0.3,0.2-0.5,0.1c-1.4-0.9-3-1.4-4.6-1.4c-2.1,0-3.2,0.9-3.2,2.3c0,1.4,0.9,2.1,3.3,2.3l1.8,0.2
			c3.4,0.3,5.1,2,5.1,4.8c0,3.4-2.5,5.6-6.9,5.6C341.6,248.3,339.3,247.4,337.3,245.7z"/>
		<path class="st0" d="M355.6,243.6c-0.4-1.2-0.6-2.6-0.6-4.3c0-1.9,0.2-3.3,0.5-4.3c1-3,3.4-4.6,6.7-4.6c3.3,0,5.7,1.7,6.7,4.6
			c0.4,1.1,0.5,2.7,0.5,4.9c0,0.3-0.1,0.4-0.4,0.4h-10.8c-0.1,0-0.2,0.1-0.2,0.2c0,0.7,0.1,1.5,0.3,2.1c0.7,2,2.1,3,4.3,3
			c1.8,0,3.3-0.6,4.4-1.9c0.2-0.2,0.4-0.2,0.5-0.1l1.5,1.3c0.2,0.1,0.2,0.3,0,0.5c-1.5,2-3.8,2.9-6.7,2.9
			C359,248.3,356.6,246.6,355.6,243.6z M366.2,237.9c0.1,0,0.2-0.1,0.2-0.2c0-0.8-0.1-1.4-0.2-1.9c-0.6-1.8-1.9-2.7-3.9-2.7
			s-3.3,0.9-3.9,2.7c-0.2,0.5-0.2,1.1-0.2,1.9c0,0.1,0.1,0.2,0.2,0.2H366.2z"/>
		<path class="st0" d="M374.7,247.9c-0.2,0-0.4-0.1-0.4-0.4v-16.3c0-0.2,0.1-0.4,0.4-0.4h2.3c0.2,0,0.4,0.1,0.4,0.4v1.7l0,0
			c0.9-1.7,2.3-2.5,4.5-2.5c1.4,0,2.6,0.4,3.5,1.3c0.2,0.2,0.2,0.3,0.1,0.5l-1.3,1.7c-0.1,0.2-0.3,0.2-0.5,0.1
			c-0.9-0.5-1.7-0.8-2.6-0.8c-2.5,0-3.7,1.7-3.7,5v9.3c0,0.2-0.1,0.4-0.4,0.4H374.7z"/>
		<path class="st0" d="M395,247.9c-0.2,0-0.4-0.1-0.4-0.4l-6.1-16.3c-0.1-0.2,0-0.4,0.3-0.4h2.5c0.2,0,0.4,0.1,0.5,0.4l4.4,12.2h0.1
			l4.3-12.2c0.1-0.2,0.2-0.4,0.4-0.4h2.4c0.2,0,0.4,0.1,0.3,0.4l-6.1,16.3c-0.1,0.2-0.2,0.4-0.5,0.4H395z"/>
		<path class="st0" d="M406.9,243.6c-0.4-1.2-0.6-2.6-0.6-4.3c0-1.9,0.2-3.3,0.5-4.3c1-3,3.4-4.6,6.7-4.6s5.7,1.7,6.7,4.6
			c0.4,1.1,0.5,2.7,0.5,4.9c0,0.3-0.1,0.4-0.4,0.4h-10.8c-0.1,0-0.2,0.1-0.2,0.2c0,0.7,0.1,1.5,0.3,2.1c0.7,2,2.1,3,4.3,3
			c1.8,0,3.3-0.6,4.4-1.9c0.2-0.2,0.4-0.2,0.5-0.1l1.5,1.3c0.2,0.1,0.2,0.3,0,0.5c-1.5,2-3.8,2.9-6.7,2.9
			C410.3,248.3,407.8,246.6,406.9,243.6z M417.5,237.9c0.1,0,0.2-0.1,0.2-0.2c0-0.8-0.1-1.4-0.2-1.9c-0.6-1.8-1.9-2.7-3.9-2.7
			s-3.3,0.9-3.9,2.7c-0.2,0.5-0.2,1.1-0.2,1.9c0,0.1,0.1,0.2,0.2,0.2H417.5z"/>
		<path class="st0" d="M436.6,247.9c-0.2,0-0.4-0.1-0.4-0.4v-1.6l0,0c-1,1.6-2.6,2.4-4.8,2.4c-3.1,0-5-1.4-5.9-4.1
			c-0.4-1.2-0.6-2.8-0.6-4.8s0.2-3.6,0.6-4.8c0.9-2.7,2.8-4.1,5.9-4.1c2.3,0,3.9,0.8,4.8,2.3l0,0V224c0-0.2,0.1-0.4,0.4-0.4h2.3
			c0.2,0,0.4,0.1,0.4,0.4v23.5c0,0.2-0.1,0.4-0.4,0.4H436.6z M435.8,242.9c0.2-0.7,0.4-2,0.4-3.6s-0.1-2.8-0.4-3.6
			c-0.6-1.7-1.8-2.6-3.8-2.6c-1.9,0-3.1,0.9-3.7,2.6c-0.2,0.9-0.4,2-0.4,3.6s0.1,2.7,0.4,3.6c0.6,1.7,1.9,2.6,3.7,2.6
			C434,245.5,435.2,244.6,435.8,242.9z"/>
		<path class="st0" d="M465.1,247.9c-0.2,0-0.4-0.1-0.4-0.4V246l0,0c-0.9,1.5-2.6,2.2-5.1,2.2c-3.4,0-5.7-1.8-5.7-5.1
			c0-3.5,2.4-5.3,6.7-5.3h3.9c0.1,0,0.2-0.1,0.2-0.2v-1.2c0-2.4-1-3.3-4.1-3.3c-1.6,0-3,0.4-4.1,1.2c-0.2,0.2-0.4,0.1-0.5,0l-1-1.6
			c-0.1-0.2-0.1-0.4,0.1-0.5c1.4-1.1,3.3-1.7,5.8-1.7c4.8,0,6.7,1.6,6.7,5.8v11.3c0,0.2-0.1,0.4-0.4,0.4L465.1,247.9L465.1,247.9z
			 M464.7,242.4v-1.9c0-0.1-0.1-0.2-0.2-0.2h-3.4c-3,0-4.2,0.8-4.2,2.8c0,1.8,1.2,2.7,3.6,2.7C463,245.7,464.7,244.5,464.7,242.4z"
			/>
		<path class="st0" d="M472.9,235c1-3,3.5-4.6,6.7-4.6c2.5,0,4.5,1,5.8,2.9c0.1,0.2,0.1,0.4-0.1,0.5l-1.6,1.3
			c-0.2,0.1-0.4,0.1-0.5,0c-1-1.3-2-1.9-3.7-1.9c-2,0-3.2,0.9-3.8,2.7c-0.2,0.8-0.4,2-0.4,3.5s0.1,2.7,0.4,3.5
			c0.6,1.8,1.9,2.7,3.8,2.7c1.7,0,2.6-0.6,3.7-1.9c0.1-0.2,0.3-0.2,0.5,0l1.6,1.3c0.2,0.1,0.2,0.3,0.1,0.5c-1.4,1.9-3.3,2.9-5.8,2.9
			c-3.3,0-5.8-1.6-6.7-4.6c-0.4-1.1-0.5-2.6-0.5-4.3C472.3,237.6,472.5,236.2,472.9,235z"/>
		<path class="st0" d="M490.3,247.9c-0.2,0-0.4-0.1-0.4-0.4v-16.3c0-0.2,0.1-0.4,0.4-0.4h2.3c0.2,0,0.4,0.1,0.4,0.4v1.7l0,0
			c0.9-1.7,2.3-2.5,4.5-2.5c1.4,0,2.6,0.4,3.5,1.3c0.2,0.2,0.2,0.3,0.1,0.5l-1.3,1.7c-0.1,0.2-0.3,0.2-0.5,0.1
			c-0.9-0.5-1.7-0.8-2.6-0.8c-2.5,0-3.7,1.7-3.7,5v9.3c0,0.2-0.1,0.4-0.4,0.4H490.3z"/>
		<path class="st0" d="M503.7,239.3c0-1.7,0.2-3.2,0.6-4.3c0.9-2.9,3.4-4.6,6.7-4.6s5.8,1.7,6.7,4.6c0.4,1.1,0.6,2.6,0.6,4.3
			s-0.2,3.2-0.6,4.3c-1,2.9-3.4,4.6-6.7,4.6s-5.8-1.7-6.7-4.6C503.9,242.5,503.7,241.1,503.7,239.3z M515.2,239.3
			c0-1.5-0.1-2.6-0.4-3.5c-0.6-1.8-1.9-2.7-3.8-2.7c-2,0-3.2,0.9-3.8,2.7c-0.2,0.9-0.4,2-0.4,3.5s0.1,2.6,0.4,3.5
			c0.6,1.8,1.9,2.7,3.8,2.7c2,0,3.2-0.9,3.8-2.7C515.1,242,515.2,240.8,515.2,239.3z"/>
		<path class="st0" d="M522,245.7c-0.2-0.2-0.2-0.3,0-0.5l1.5-1.6c0.2-0.2,0.3-0.2,0.5,0c1.5,1.3,3.3,2,5.3,2c2.4,0,3.7-1,3.7-2.6
			c0-1.4-0.7-2.1-3.3-2.4l-1.8-0.2c-3.4-0.4-5.1-2-5.1-4.8c0-3.3,2.3-5.2,6.3-5.2c2.3,0,4.4,0.6,6.1,1.9c0.2,0.1,0.2,0.3,0.1,0.5
			l-1.2,1.5c-0.1,0.2-0.3,0.2-0.5,0.1c-1.4-0.9-3-1.4-4.6-1.4c-2.1,0-3.2,0.9-3.2,2.3c0,1.4,0.9,2.1,3.3,2.3l1.8,0.2
			c3.4,0.3,5.1,2,5.1,4.8c0,3.4-2.5,5.6-6.9,5.6C526.3,248.3,523.9,247.4,522,245.7z"/>
		<path class="st0" d="M539.7,245.7c-0.2-0.2-0.2-0.3,0-0.5l1.5-1.6c0.2-0.2,0.3-0.2,0.5,0c1.5,1.3,3.3,2,5.3,2c2.4,0,3.7-1,3.7-2.6
			c0-1.4-0.7-2.1-3.3-2.4l-1.8-0.2c-3.4-0.4-5.1-2-5.1-4.8c0-3.3,2.3-5.2,6.3-5.2c2.3,0,4.4,0.6,6.1,1.9c0.2,0.1,0.2,0.3,0.1,0.5
			l-1.2,1.5c-0.1,0.2-0.3,0.2-0.5,0.1c-1.4-0.9-3-1.4-4.6-1.4c-2.1,0-3.2,0.9-3.2,2.3c0,1.4,0.9,2.1,3.3,2.3l1.8,0.2
			c3.4,0.3,5.1,2,5.1,4.8c0,3.4-2.5,5.6-6.9,5.6C544,248.3,541.7,247.4,539.7,245.7z"/>
		<path class="st0" d="M568.2,247.9c-0.2,0-0.4-0.1-0.4-0.4V224c0-0.2,0.1-0.4,0.4-0.4h2.3c0.2,0,0.4,0.1,0.4,0.4v8.8l0,0
			c1-1.6,2.6-2.3,4.8-2.3c3.1,0,5,1.4,5.9,4.1c0.4,1.2,0.6,2.8,0.6,4.8s-0.2,3.7-0.6,4.8c-0.9,2.7-2.8,4.1-5.9,4.1
			c-2.2,0-3.9-0.8-4.8-2.4l0,0v1.6c0,0.2-0.1,0.4-0.4,0.4L568.2,247.9L568.2,247.9z M578.8,242.9c0.2-0.8,0.4-2,0.4-3.6
			c0-1.5-0.1-2.7-0.4-3.6c-0.6-1.7-1.9-2.6-3.7-2.6c-2,0-3.2,0.9-3.8,2.6c-0.2,0.8-0.4,2-0.4,3.6s0.1,2.8,0.4,3.6
			c0.6,1.7,1.8,2.6,3.8,2.6C576.9,245.5,578.2,244.6,578.8,242.9z"/>
		<path class="st0" d="M586.3,239.3c0-1.7,0.2-3.2,0.6-4.3c0.9-2.9,3.4-4.6,6.7-4.6s5.8,1.7,6.7,4.6c0.4,1.1,0.6,2.6,0.6,4.3
			s-0.2,3.2-0.6,4.3c-1,2.9-3.4,4.6-6.7,4.6s-5.8-1.7-6.7-4.6C586.5,242.5,586.3,241.1,586.3,239.3z M597.8,239.3
			c0-1.5-0.1-2.6-0.4-3.5c-0.6-1.8-1.9-2.7-3.8-2.7c-2,0-3.2,0.9-3.8,2.7c-0.2,0.9-0.4,2-0.4,3.5s0.1,2.6,0.4,3.5
			c0.6,1.8,1.9,2.7,3.8,2.7c2,0,3.2-0.9,3.8-2.7C597.7,242,597.8,240.8,597.8,239.3z"/>
		<path class="st0" d="M606.1,247.9c-0.2,0-0.4-0.1-0.4-0.4v-16.3c0-0.2,0.1-0.4,0.4-0.4h2.3c0.2,0,0.4,0.1,0.4,0.4v1.7l0,0
			c0.9-1.7,2.3-2.5,4.5-2.5c1.4,0,2.6,0.4,3.5,1.3c0.2,0.2,0.2,0.3,0.1,0.5l-1.3,1.7c-0.1,0.2-0.3,0.2-0.5,0.1
			c-0.9-0.5-1.7-0.8-2.6-0.8c-2.5,0-3.7,1.7-3.7,5v9.3c0,0.2-0.1,0.4-0.4,0.4H606.1z"/>
		<path class="st0" d="M631.3,247.9c-0.2,0-0.4-0.1-0.4-0.4v-1.6l0,0c-1,1.6-2.6,2.4-4.8,2.4c-3.1,0-5-1.4-5.9-4.1
			c-0.4-1.2-0.6-2.8-0.6-4.8s0.2-3.6,0.6-4.8c0.9-2.7,2.8-4.1,5.9-4.1c2.3,0,3.9,0.8,4.8,2.3l0,0V224c0-0.2,0.1-0.4,0.4-0.4h2.3
			c0.2,0,0.4,0.1,0.4,0.4v23.5c0,0.2-0.1,0.4-0.4,0.4H631.3z M630.6,242.9c0.2-0.7,0.4-2,0.4-3.6s-0.1-2.8-0.4-3.6
			c-0.6-1.7-1.8-2.6-3.8-2.6c-1.9,0-3.1,0.9-3.7,2.6c-0.2,0.9-0.4,2-0.4,3.6s0.1,2.7,0.4,3.6c0.6,1.7,1.9,2.6,3.7,2.6
			C628.8,245.5,630,244.6,630.6,242.9z"/>
		<path class="st0" d="M639.4,243.6c-0.4-1.2-0.6-2.6-0.6-4.3c0-1.9,0.2-3.3,0.5-4.3c1-3,3.4-4.6,6.7-4.6s5.7,1.7,6.7,4.6
			c0.4,1.1,0.5,2.7,0.5,4.9c0,0.3-0.1,0.4-0.4,0.4H642c-0.1,0-0.2,0.1-0.2,0.2c0,0.7,0.1,1.5,0.3,2.1c0.7,2,2.1,3,4.3,3
			c1.8,0,3.3-0.6,4.4-1.9c0.2-0.2,0.4-0.2,0.5-0.1l1.5,1.3c0.2,0.1,0.2,0.3,0,0.5c-1.5,2-3.8,2.9-6.7,2.9
			C642.8,248.3,640.4,246.6,639.4,243.6z M650,237.9c0.1,0,0.2-0.1,0.2-0.2c0-0.8-0.1-1.4-0.2-1.9c-0.6-1.8-1.9-2.7-3.9-2.7
			s-3.3,0.9-3.9,2.7c-0.2,0.5-0.2,1.1-0.2,1.9c0,0.1,0.1,0.2,0.2,0.2H650z"/>
		<path class="st0" d="M658.5,247.9c-0.2,0-0.4-0.1-0.4-0.4v-16.3c0-0.2,0.1-0.4,0.4-0.4h2.3c0.2,0,0.4,0.1,0.4,0.4v1.7l0,0
			c0.9-1.7,2.3-2.5,4.5-2.5c1.4,0,2.6,0.4,3.5,1.3c0.2,0.2,0.2,0.3,0.1,0.5l-1.3,1.7c-0.1,0.2-0.3,0.2-0.5,0.1
			c-0.9-0.5-1.7-0.8-2.6-0.8c-2.5,0-3.7,1.7-3.7,5v9.3c0,0.2-0.1,0.4-0.4,0.4H658.5z"/>
		<path class="st0" d="M671.9,245.7c-0.2-0.2-0.2-0.3,0-0.5l1.5-1.6c0.2-0.2,0.3-0.2,0.5,0c1.5,1.3,3.3,2,5.3,2c2.4,0,3.7-1,3.7-2.6
			c0-1.4-0.7-2.1-3.3-2.4l-1.8-0.2c-3.4-0.4-5.1-2-5.1-4.8c0-3.3,2.3-5.2,6.3-5.2c2.3,0,4.4,0.6,6.1,1.9c0.2,0.1,0.2,0.3,0.1,0.5
			l-1.2,1.5c-0.1,0.2-0.3,0.2-0.5,0.1c-1.4-0.9-3-1.4-4.6-1.4c-2.1,0-3.2,0.9-3.2,2.3c0,1.4,0.9,2.1,3.3,2.3l1.8,0.2
			c3.4,0.3,5.1,2,5.1,4.8c0,3.4-2.5,5.6-6.9,5.6C676.2,248.3,673.9,247.4,671.9,245.7z"/>
		<path class="st0" d="M710.4,247.9c-0.2,0-0.4-0.1-0.4-0.4V246l0,0c-0.9,1.5-2.6,2.2-5.1,2.2c-3.4,0-5.7-1.8-5.7-5.1
			c0-3.5,2.4-5.3,6.7-5.3h3.9c0.1,0,0.2-0.1,0.2-0.2v-1.2c0-2.4-1-3.3-4.1-3.3c-1.6,0-3,0.4-4.1,1.2c-0.2,0.2-0.4,0.1-0.5,0l-1-1.6
			c-0.1-0.2-0.1-0.4,0.1-0.5c1.4-1.1,3.3-1.7,5.8-1.7c4.8,0,6.7,1.6,6.7,5.8v11.3c0,0.2-0.1,0.4-0.4,0.4L710.4,247.9L710.4,247.9z
			 M710,242.4v-1.9c0-0.1-0.1-0.2-0.2-0.2h-3.4c-3,0-4.2,0.8-4.2,2.8c0,1.8,1.2,2.7,3.6,2.7C708.3,245.7,710,244.5,710,242.4z"/>
		<path class="st0" d="M729.5,247.9c-0.2,0-0.4-0.1-0.4-0.4v-10c0-2.9-1.3-4.3-3.8-4.3c-2.3,0-3.9,1.6-3.9,4.2v10.1
			c0,0.2-0.1,0.4-0.4,0.4h-2.3c-0.2,0-0.4-0.1-0.4-0.4v-16.3c0-0.2,0.1-0.4,0.4-0.4h2.3c0.2,0,0.4,0.1,0.4,0.4v1.6l0,0
			c1-1.5,2.5-2.3,4.8-2.3c3.7,0,5.9,2.5,5.9,6.4v10.7c0,0.2-0.1,0.4-0.4,0.4L729.5,247.9L729.5,247.9z"/>
		<path class="st0" d="M748.6,247.9c-0.2,0-0.4-0.1-0.4-0.4v-1.6l0,0c-1,1.6-2.6,2.4-4.8,2.4c-3.1,0-5-1.4-5.9-4.1
			c-0.4-1.2-0.6-2.8-0.6-4.8s0.2-3.6,0.6-4.8c0.9-2.7,2.8-4.1,5.9-4.1c2.3,0,3.9,0.8,4.8,2.3l0,0V224c0-0.2,0.1-0.4,0.4-0.4h2.3
			c0.2,0,0.4,0.1,0.4,0.4v23.5c0,0.2-0.1,0.4-0.4,0.4H748.6z M747.9,242.9c0.2-0.7,0.4-2,0.4-3.6s-0.1-2.8-0.4-3.6
			c-0.6-1.7-1.8-2.6-3.8-2.6c-1.9,0-3.1,0.9-3.7,2.6c-0.2,0.9-0.4,2-0.4,3.6s0.1,2.7,0.4,3.6c0.6,1.7,1.9,2.6,3.7,2.6
			C746.1,245.5,747.3,244.6,747.9,242.9z"/>
		<path class="st0" d="M777.5,247.9c-0.2,0-0.4-0.1-0.4-0.4v-1.6l0,0c-1,1.6-2.6,2.4-4.8,2.4c-3.1,0-5-1.4-5.9-4.1
			c-0.4-1.2-0.6-2.8-0.6-4.8s0.2-3.6,0.6-4.8c0.9-2.7,2.8-4.1,5.9-4.1c2.3,0,3.9,0.8,4.8,2.3l0,0V224c0-0.2,0.1-0.4,0.4-0.4h2.3
			c0.2,0,0.4,0.1,0.4,0.4v23.5c0,0.2-0.1,0.4-0.4,0.4H777.5z M776.8,242.9c0.2-0.7,0.4-2,0.4-3.6s-0.1-2.8-0.4-3.6
			c-0.6-1.7-1.8-2.6-3.8-2.6c-1.9,0-3.1,0.9-3.7,2.6c-0.2,0.9-0.4,2-0.4,3.6s0.1,2.7,0.4,3.6c0.6,1.7,1.9,2.6,3.7,2.6
			C775,245.5,776.2,244.6,776.8,242.9z"/>
		<path class="st0" d="M786.1,227c-0.2,0-0.4-0.1-0.4-0.4V224c0-0.2,0.1-0.4,0.4-0.4h2.4c0.2,0,0.4,0.1,0.4,0.4v2.6
			c0,0.2-0.1,0.4-0.4,0.4H786.1z M786.2,247.9c-0.2,0-0.4-0.1-0.4-0.4v-16.3c0-0.2,0.1-0.4,0.4-0.4h2.3c0.2,0,0.4,0.1,0.4,0.4v16.3
			c0,0.2-0.1,0.4-0.4,0.4H786.2z"/>
		<path class="st0" d="M793.5,245.7c-0.2-0.2-0.2-0.3,0-0.5l1.5-1.6c0.2-0.2,0.3-0.2,0.5,0c1.5,1.3,3.3,2,5.3,2c2.4,0,3.7-1,3.7-2.6
			c0-1.4-0.7-2.1-3.3-2.4l-1.8-0.2c-3.4-0.4-5.1-2-5.1-4.8c0-3.3,2.3-5.2,6.3-5.2c2.3,0,4.4,0.6,6.1,1.9c0.2,0.1,0.2,0.3,0.1,0.5
			l-1.2,1.5c-0.1,0.2-0.3,0.2-0.5,0.1c-1.4-0.9-3-1.4-4.6-1.4c-2.1,0-3.2,0.9-3.2,2.3c0,1.4,0.9,2.1,3.3,2.3l1.8,0.2
			c3.4,0.3,5.1,2,5.1,4.8c0,3.4-2.5,5.6-6.9,5.6C797.8,248.3,795.5,247.4,793.5,245.7z"/>
		<path class="st0" d="M811.8,235c1-3,3.5-4.6,6.7-4.6c2.5,0,4.5,1,5.8,2.9c0.1,0.2,0.1,0.4-0.1,0.5l-1.6,1.3
			c-0.2,0.1-0.4,0.1-0.5,0c-1-1.3-2-1.9-3.7-1.9c-2,0-3.2,0.9-3.8,2.7c-0.2,0.8-0.4,2-0.4,3.5s0.1,2.7,0.4,3.5
			c0.6,1.8,1.9,2.7,3.8,2.7c1.7,0,2.6-0.6,3.7-1.9c0.1-0.2,0.3-0.2,0.5,0l1.6,1.3c0.2,0.1,0.2,0.3,0.1,0.5c-1.4,1.9-3.3,2.9-5.8,2.9
			c-3.3,0-5.8-1.6-6.7-4.6c-0.4-1.1-0.5-2.6-0.5-4.3C811.3,237.6,811.5,236.2,811.8,235z"/>
		<path class="st0" d="M829.2,227c-0.2,0-0.4-0.1-0.4-0.4V224c0-0.2,0.1-0.4,0.4-0.4h2.4c0.2,0,0.4,0.1,0.4,0.4v2.6
			c0,0.2-0.1,0.4-0.4,0.4H829.2z M829.3,247.9c-0.2,0-0.4-0.1-0.4-0.4v-16.3c0-0.2,0.1-0.4,0.4-0.4h2.3c0.2,0,0.4,0.1,0.4,0.4v16.3
			c0,0.2-0.1,0.4-0.4,0.4H829.3z"/>
		<path class="st0" d="M837.9,254.3c-0.2,0-0.4-0.1-0.4-0.4v-22.7c0-0.2,0.1-0.4,0.4-0.4h2.3c0.2,0,0.4,0.1,0.4,0.4v1.6l0,0
			c1-1.6,2.6-2.3,4.8-2.3c3.1,0,5,1.4,5.9,4.1c0.4,1.2,0.6,2.8,0.6,4.8s-0.2,3.7-0.6,4.8c-0.9,2.7-2.8,4.1-5.9,4.1
			c-2.2,0-3.9-0.8-4.8-2.4l0,0v8c0,0.2-0.1,0.4-0.4,0.4L837.9,254.3L837.9,254.3z M848.5,242.9c0.2-0.8,0.4-2,0.4-3.6
			c0-1.5-0.1-2.7-0.4-3.6c-0.6-1.7-1.9-2.6-3.7-2.6c-2,0-3.2,0.9-3.8,2.6c-0.2,0.8-0.4,2-0.4,3.6s0.1,2.8,0.4,3.6
			c0.6,1.7,1.8,2.6,3.8,2.6C846.6,245.5,847.9,244.6,848.5,242.9z"/>
		<path class="st0" d="M861,248.1c-3,0-4.2-1.4-4.2-4.5V224c0-0.2,0.1-0.4,0.4-0.4h2.3c0.2,0,0.4,0.1,0.4,0.4v19.4
			c0,1.4,0.5,1.9,1.7,1.9h0.7c0.2,0,0.4,0.1,0.4,0.4v2.1c0,0.2-0.1,0.4-0.4,0.4L861,248.1L861,248.1z"/>
		<path class="st0" d="M867.1,227c-0.2,0-0.4-0.1-0.4-0.4V224c0-0.2,0.1-0.4,0.4-0.4h2.4c0.2,0,0.4,0.1,0.4,0.4v2.6
			c0,0.2-0.1,0.4-0.4,0.4H867.1z M867.2,247.9c-0.2,0-0.4-0.1-0.4-0.4v-16.3c0-0.2,0.1-0.4,0.4-0.4h2.3c0.2,0,0.4,0.1,0.4,0.4v16.3
			c0,0.2-0.1,0.4-0.4,0.4H867.2z"/>
		<path class="st0" d="M886.5,247.9c-0.2,0-0.4-0.1-0.4-0.4v-10c0-2.9-1.3-4.3-3.8-4.3c-2.3,0-3.9,1.6-3.9,4.2v10.1
			c0,0.2-0.1,0.4-0.4,0.4h-2.3c-0.2,0-0.4-0.1-0.4-0.4v-16.3c0-0.2,0.1-0.4,0.4-0.4h2.3c0.2,0,0.4,0.1,0.4,0.4v1.6l0,0
			c1-1.5,2.5-2.3,4.8-2.3c3.7,0,5.9,2.5,5.9,6.4v10.7c0,0.2-0.1,0.4-0.4,0.4L886.5,247.9L886.5,247.9z"/>
		<path class="st0" d="M894.4,243.6c-0.4-1.2-0.6-2.6-0.6-4.3c0-1.9,0.2-3.3,0.5-4.3c1-3,3.4-4.6,6.7-4.6s5.7,1.7,6.7,4.6
			c0.4,1.1,0.5,2.7,0.5,4.9c0,0.3-0.1,0.4-0.4,0.4H897c-0.1,0-0.2,0.1-0.2,0.2c0,0.7,0.1,1.5,0.3,2.1c0.7,2,2.1,3,4.3,3
			c1.8,0,3.3-0.6,4.4-1.9c0.2-0.2,0.4-0.2,0.5-0.1l1.5,1.3c0.2,0.1,0.2,0.3,0,0.5c-1.5,2-3.8,2.9-6.7,2.9
			C897.8,248.3,895.4,246.6,894.4,243.6z M905.1,237.9c0.1,0,0.2-0.1,0.2-0.2c0-0.8-0.1-1.4-0.2-1.9c-0.6-1.8-1.9-2.7-3.9-2.7
			s-3.3,0.9-3.9,2.7c-0.2,0.5-0.2,1.1-0.2,1.9c0,0.1,0.1,0.2,0.2,0.2H905.1z"/>
		<path class="st0" d="M912.4,245.7c-0.2-0.2-0.2-0.3,0-0.5l1.5-1.6c0.2-0.2,0.3-0.2,0.5,0c1.5,1.3,3.3,2,5.3,2c2.4,0,3.7-1,3.7-2.6
			c0-1.4-0.7-2.1-3.3-2.4l-1.8-0.2c-3.4-0.4-5.1-2-5.1-4.8c0-3.3,2.3-5.2,6.3-5.2c2.3,0,4.4,0.6,6.1,1.9c0.2,0.1,0.2,0.3,0.1,0.5
			l-1.2,1.5c-0.1,0.2-0.3,0.2-0.5,0.1c-1.4-0.9-3-1.4-4.6-1.4c-2.1,0-3.2,0.9-3.2,2.3c0,1.4,0.9,2.1,3.3,2.3l1.8,0.2
			c3.4,0.3,5.1,2,5.1,4.8c0,3.4-2.5,5.6-6.9,5.6C916.7,248.3,914.4,247.4,912.4,245.7z"/>
	</g>
</g>
</svg>
