<svg xmlns="http://www.w3.org/2000/svg" xmlns:xlink="http://www.w3.org/1999/xlink" width="206" height="113" viewBox="0 0 206 113"><defs><clipPath id="a"><rect width="206" height="113" transform="translate(1184 1076)" fill="#fff" stroke="#707070" stroke-width="1"/></clipPath></defs><g transform="translate(-1184 -1076)" opacity="0.912" clip-path="url(#a)"><g transform="translate(1200.017 618)"><g transform="translate(0 222.383)"><path d="M501.77,955.2v47.31h1.151V955.846l42.4-25.44,42.4,25.44v46.659h1.144V955.2L545.319,929.07Z" transform="translate(-157.976 -514.889)" fill="#264899"/><path d="M439.05,992.832v21.521h1.144v-20.87l42.4-25.447L525,993.483v20.87h1.151V992.832L482.6,966.7Z" transform="translate(-138.229 -526.736)" fill="#264899"/><path d="M724.321,916.341,691.084,896.4V845.474l33.237-19.938V824.2L689.94,844.823v52.223l34.381,20.63Z" transform="translate(-217.219 -481.872)" fill="#264899"/><path d="M627.22,804.665v52.216l43.542,26.132,33.813-20.281V861.39l-33.813,20.288-42.4-25.44V805.316l42.4-25.44,33.813,20.281v-1.336L670.762,778.54Z" transform="translate(-197.472 -467.497)" fill="#264899"/><g transform="translate(85.947 104.768)"><path d="M168.989,581.954,125.44,555.828V503.612l43.549-26.132,43.549,26.125v52.216Zm-42.4-26.783,42.4,25.44,42.4-25.44V504.249l-42.4-25.433-42.4,25.44v50.914Z" transform="translate(-125.44 -477.48)" fill="#264899"/></g><g transform="translate(42.973 78.979)"><path d="M106.269,544.314,62.72,518.188V465.972l43.549-26.132,43.549,26.132v52.216Zm-42.4-26.776,42.4,25.44,42.4-25.44V466.616l-42.4-25.44-42.4,25.44Z" transform="translate(-62.72 -439.84)" fill="#264899"/></g><g transform="translate(42.973 130.544)"><path d="M106.269,619.581,62.72,593.448V541.232L106.269,515.1l43.549,26.132v52.216ZM63.864,592.8l42.4,25.44,42.4-25.44V541.883l-42.4-25.44-42.4,25.44Z" transform="translate(-62.72 -515.1)" fill="#264899"/></g><g transform="translate(300.821 130.544)"><path d="M482.6,619.581,439.05,593.448V541.232L482.6,515.1l43.549,26.132v52.216Zm-42.4-26.776,42.4,25.44L525,592.8V541.883l-42.4-25.44-42.4,25.44V592.8Z" transform="translate(-439.05 -515.1)" fill="#264899"/></g><g transform="translate(300.821 78.972)"><path d="M482.6,544.311,439.05,518.178V465.962L482.6,439.83l43.549,26.132v52.216Zm-42.4-26.776,42.4,25.44,42.4-25.44V466.613l-42.4-25.44-42.4,25.44v50.921Z" transform="translate(-439.05 -439.83)" fill="#264899"/></g><g transform="translate(257.854 53.196)"><path d="M419.882,506.684,376.34,480.558V428.335l43.542-26.125,43.549,26.125v52.223Zm-42.4-26.776,42.4,25.44,42.4-25.44V428.986l-42.4-25.44-42.4,25.44Z" transform="translate(-376.34 -402.21)" fill="#264899"/></g><g transform="translate(343.794 53.196)"><path d="M545.319,506.684,501.77,480.558V428.335l43.549-26.125,43.549,26.125v52.223Zm-42.4-26.776,42.4,25.44,42.4-25.44V428.986l-42.4-25.44-42.4,25.44Z" transform="translate(-501.77 -402.21)" fill="#264899"/></g><g transform="translate(85.947 362.609)"><path d="M168.989,958.281,125.44,932.148V879.932L168.989,853.8l43.549,26.125v52.216Zm-42.4-26.783,42.4,25.44,42.4-25.44V880.576l-42.4-25.44-42.4,25.44V931.5Z" transform="translate(-125.44 -853.8)" fill="#264899"/></g><g transform="translate(128.92 336.826)"><path d="M231.709,920.644,188.16,894.511V842.3l43.549-26.125L275.258,842.3v52.216Zm-42.4-26.776,42.4,25.44,42.4-25.44V842.946l-42.4-25.44-42.4,25.44v50.921Z" transform="translate(-188.16 -816.17)" fill="#264899"/></g><g transform="translate(257.854 311.05)"><path d="M419.882,883.017,376.34,856.891V804.675l43.542-26.125,43.549,26.125v52.216Zm-42.4-26.776,42.4,25.44,42.4-25.44V805.319l-42.4-25.44-42.4,25.44Z" transform="translate(-376.34 -778.55)" fill="#264899"/></g><g transform="translate(300.821 233.688)"><path d="M482.6,770.114,439.05,743.981V691.765L482.6,665.64l43.549,26.125v52.216Zm-42.4-26.776,42.4,25.44,42.4-25.44V692.416l-42.4-25.44-42.4,25.44v50.921Z" transform="translate(-439.05 -665.64)" fill="#264899"/></g><g transform="translate(343.794 207.899)"><path d="M545.319,732.48,501.77,706.355V654.139L545.319,628l43.549,26.125v52.216Zm-42.4-26.776,42.4,25.44,42.4-25.44V654.783l-42.4-25.44-42.4,25.44Z" transform="translate(-501.77 -628)" fill="#264899"/></g><g transform="translate(386.768 233.688)"><path d="M608.039,770.114,564.49,743.981V691.765l43.549-26.125,43.549,26.125v52.216Zm-42.4-26.776,42.4,25.44,42.4-25.44V692.416l-42.4-25.44-42.4,25.44Z" transform="translate(-564.49 -665.64)" fill="#264899"/></g><g transform="translate(386.768 336.826)"><path d="M608.039,920.644,564.49,894.511V842.3l43.549-26.125L651.588,842.3v52.216Zm-42.4-26.776,42.4,25.44,42.4-25.44V842.946l-42.4-25.44-42.4,25.44Z" transform="translate(-564.49 -816.17)" fill="#264899"/></g><g transform="translate(386.768 182.123)"><path d="M608.039,694.854,564.49,668.721V616.505l43.549-26.125,43.549,26.125v52.216Zm-42.4-26.783,42.4,25.447,42.4-25.447V617.149l-42.4-25.44-42.4,25.44Z" transform="translate(-564.49 -590.38)" fill="#264899"/></g><g transform="translate(343.794 156.334)"><path d="M545.319,657.214,501.77,631.081V578.865l43.549-26.125,43.549,26.125v52.216Zm-42.4-26.776,42.4,25.44,42.4-25.44V579.516l-42.4-25.44-42.4,25.44Z" transform="translate(-501.77 -552.74)" fill="#264899"/></g><g transform="translate(171.901 259.478)"><path d="M294.439,807.747,250.89,781.622V729.405l43.549-26.125,43.542,26.125v52.216Zm-42.4-26.776,42.4,25.44,42.4-25.44V730.049l-42.4-25.44-42.4,25.44Z" transform="translate(-250.89 -703.28)" fill="#264899"/></g><g transform="translate(257.854 259.478)"><path d="M419.882,807.747,376.34,781.622V729.405l43.542-26.125,43.549,26.125v52.216Zm-42.4-26.776,42.4,25.44,42.4-25.44V730.049l-42.4-25.44-42.4,25.44Z" transform="translate(-376.34 -703.28)" fill="#264899"/></g><g transform="translate(128.92 285.261)"><path d="M231.709,845.384,188.16,819.252V767.035l43.549-26.125,43.549,26.125v52.216Zm-42.4-26.783,42.4,25.44,42.4-25.44V767.679l-42.4-25.44-42.4,25.44V818.6Z" transform="translate(-188.16 -740.91)" fill="#264899"/></g><g transform="translate(85.947 259.471)"><path d="M168.989,807.744,125.44,781.618V729.4l43.549-26.132L212.538,729.4v52.216Zm-42.4-26.776,42.4,25.44,42.4-25.44V730.046l-42.4-25.44-42.4,25.44v50.921Z" transform="translate(-125.44 -703.27)" fill="#264899"/></g><g transform="translate(85.947 311.043)"><path d="M168.989,883.014,125.44,856.888V804.672l43.549-26.132,43.549,26.125v52.216Zm-42.4-26.776,42.4,25.44,42.4-25.44V805.316l-42.4-25.44-42.4,25.44v50.921Z" transform="translate(-125.44 -778.54)" fill="#264899"/></g><g transform="translate(42.973 285.261)"><path d="M106.269,845.384,62.72,819.252V767.035l43.549-26.125,43.549,26.125v52.216ZM63.864,818.6l42.4,25.44,42.4-25.44V767.679l-42.4-25.44-42.4,25.44Z" transform="translate(-62.72 -740.91)" fill="#264899"/></g><g transform="translate(0 207.906)"><path d="M43.549,732.484,0,706.351V654.135L43.549,628.01,87.1,654.135v52.216Zm-42.4-26.776,42.4,25.44,42.4-25.44V654.786l-42.4-25.44-42.4,25.44Z" transform="translate(0 -628.01)" fill="#264899"/></g><g transform="translate(128.92 182.123)"><path d="M231.709,694.854,188.16,668.721V616.505l43.549-26.125,43.549,26.125v52.216Zm-42.4-26.783,42.4,25.447,42.4-25.447V617.149l-42.4-25.44-42.4,25.44v50.921Z" transform="translate(-188.16 -590.38)" fill="#264899"/></g><g transform="translate(171.901 207.899)"><path d="M294.439,732.48,250.89,706.355V654.139L294.439,628l43.542,26.132v52.216Zm-42.4-26.776,42.4,25.44,42.4-25.44V654.783l-42.4-25.44-42.4,25.44Z" transform="translate(-250.89 -628)" fill="#264899"/></g><path d="M190.392,552.536a2.576,2.576,0,1,0-2.576,2.576A2.573,2.573,0,0,0,190.392,552.536Z" transform="translate(-58.32 -395.531)" fill="#264899"/><path d="M65.419,627.4a3.44,3.44,0,1,0-3.44,3.44A3.442,3.442,0,0,0,65.419,627.4Z" transform="translate(-18.431 -418.829)" fill="#264899"/><path d="M190.241,778.458a2.3,2.3,0,1,0-2.3,2.3A2.29,2.29,0,0,0,190.241,778.458Z" transform="translate(-58.45 -466.75)" fill="#264899"/><g transform="translate(214.874 182.123)"><path d="M357.159,694.854,313.61,668.721V616.505l43.549-26.125,43.549,26.125v52.216Zm-42.4-26.783,42.4,25.447,42.4-25.447V617.149l-42.4-25.44-42.4,25.44Z" transform="translate(-313.61 -590.38)" fill="#264899"/></g><path d="M315.684,627.928a2.292,2.292,0,1,0-2.288,2.3A2.288,2.288,0,0,0,315.684,627.928Z" transform="translate(-97.946 -419.358)" fill="#264899"/><path d="M504.773,664.775a4.012,4.012,0,1,0-4.008,4.008A4.015,4.015,0,0,0,504.773,664.775Z" transform="translate(-156.395 -430.415)" fill="#264899"/><path d="M691.855,628.058a2.008,2.008,0,1,0-2.007,2.007A2.006,2.006,0,0,0,691.855,628.058Z" transform="translate(-216.558 -419.487)" fill="#264899"/><path d="M629.453,514.9a2.576,2.576,0,1,0-2.576,2.576A2.578,2.578,0,0,0,629.453,514.9Z" transform="translate(-196.553 -383.681)" fill="#264899"/><path d="M629.453,740.7a2.576,2.576,0,1,0-2.576,2.576A2.578,2.578,0,0,0,629.453,740.7Z" transform="translate(-196.553 -454.771)" fill="#264899"/><path d="M504.469,439.24a3.439,3.439,0,1,0-3.44,3.44A3.442,3.442,0,0,0,504.469,439.24Z" transform="translate(-156.66 -359.589)" fill="#264899"/><path d="M628.824,364.892a1.432,1.432,0,1,0-1.432,1.432A1.427,1.427,0,0,0,628.824,364.892Z" transform="translate(-197.075 -336.814)" fill="#264899"/><path d="M566.571,326.865a2.3,2.3,0,1,0-2.3,2.3A2.3,2.3,0,0,0,566.571,326.865Z" transform="translate(-176.932 -324.57)" fill="#264899"/><path d="M504,815.966a2.576,2.576,0,1,0-2.576,2.576A2.578,2.578,0,0,0,504,815.966Z" transform="translate(-157.056 -478.469)" fill="#264899"/><path d="M315.068,1004.784a1.144,1.144,0,1,0-1.144,1.144A1.142,1.142,0,0,0,315.068,1004.784Z" transform="translate(-98.475 -538.367)" fill="#264899"/><path d="M378.873,966.232a3.152,3.152,0,1,0-3.152,3.152A3.152,3.152,0,0,0,378.873,966.232Z" transform="translate(-117.299 -525.597)" fill="#264899"/><path d="M631,814.647a5.444,5.444,0,1,0-5.447,5.44A5.448,5.448,0,0,0,631,814.647Z" transform="translate(-195.234 -477.149)" fill="#264899"/><path d="M128.288,890.707a3.724,3.724,0,1,0-3.72,3.72A3.725,3.725,0,0,0,128.288,890.707Z" transform="translate(-38.045 -501.637)" fill="#264899"/><path d="M64.645,1004.388a2.008,2.008,0,1,0-2.008,2A2.006,2.006,0,0,0,64.645,1004.388Z" transform="translate(-19.089 -537.97)" fill="#264899"/><path d="M568.119,927.679a5.159,5.159,0,1,0-5.159,5.159A5.158,5.158,0,0,0,568.119,927.679Z" transform="translate(-175.616 -512.827)" fill="#264899"/><path d="M252.961,891.365a2.3,2.3,0,1,0-2.3,2.288A2.3,2.3,0,0,0,252.961,891.365Z" transform="translate(-78.196 -502.296)" fill="#264899"/><path d="M379.647,739.774a4.584,4.584,0,1,0-4.584,4.584A4.584,4.584,0,0,0,379.647,739.774Z" transform="translate(-116.641 -453.848)" fill="#264899"/><path d="M315.684,552.668a2.292,2.292,0,1,0-2.288,2.3A2.288,2.288,0,0,0,315.684,552.668Z" transform="translate(-97.946 -395.663)" fill="#264899"/><path d="M252.19,440.423a.86.86,0,1,0-.863.856A.864.864,0,0,0,252.19,440.423Z" transform="translate(-78.857 -360.773)" fill="#264899"/><path d="M724.321,464.741,691.084,444.8V393.881l33.237-19.945V372.6L689.94,393.23v52.216l34.381,20.63Z" transform="translate(-217.219 -339.692)" fill="#264899"/><path d="M724.321,615.274l-33.237-19.938V544.414l33.237-19.938V523.14L689.94,543.763V595.98l34.381,20.63Z" transform="translate(-217.219 -387.087)" fill="#264899"/><path d="M627.22,503.605v52.216l43.542,26.132,33.813-20.288V560.33l-33.813,20.281-42.4-25.44V504.256l42.4-25.44L704.575,499.1v-1.336L670.762,477.48Z" transform="translate(-197.472 -372.712)" fill="#264899"/><path d="M439.05,917.565v52.223l34.793,20.87h2.227l-35.875-21.521V918.216l42.4-25.44,42.4,25.44v50.921l-35.868,21.521h2.227l34.793-20.87V917.565L482.6,891.44Z" transform="translate(-138.229 -503.042)" fill="#264899"/></g><g transform="translate(100.328)"><path d="M548.93,37.951V0h.918V37.43L583.86,57.841,617.871,37.43V0h.918V37.951L583.86,58.91Z" transform="translate(-273.152)" fill="#d5d5d5"/><path d="M498.61,17.266V0h.918V16.745l34.018,20.411,34.012-20.411V0h.918V17.266l-34.93,20.959Z" transform="translate(-257.309)" fill="#858585"/><path d="M727.445,61.739l-26.66,16V118.58l26.66,16v1.069L699.86,119.1V77.217L727.445,60.67Z" transform="translate(-320.67 -19.101)" fill="#d5d5d5"/><path d="M649.55,147.263V105.379L684.487,84.42l27.119,16.266v1.076L684.487,85.489,650.468,105.9v40.843l34.018,20.411,27.119-16.273v1.069l-27.119,16.273Z" transform="translate(-304.831 -26.579)" fill="#212121"/><g transform="translate(68.941 223.308)"><path d="M316.916,346.879V388.77L281.98,409.729,247.05,388.77V346.879l34.93-20.959Zm-68.948,41.363,34.011,20.411,34.012-20.411V347.4L281.98,326.989,247.968,347.4v40.843Z" transform="translate(-247.05 -325.92)" fill="#d5d5d5"/></g><g transform="translate(34.471 243.986)"><path d="M266.6,377.059V418.95l-34.93,20.959L196.74,418.95V377.059L231.67,356.1Zm-68.941,41.37,34.012,20.4,34.011-20.4V377.587L231.67,357.176l-34.012,20.411Z" transform="translate(-196.74 -356.1)" fill="#212121"/></g><g transform="translate(34.471 202.623)"><path d="M266.6,316.689V358.58l-34.93,20.959L196.74,358.58V316.689l34.93-20.959Zm-68.941,41.363,34.012,20.411,34.011-20.411V317.2L231.67,296.792l-34.012,20.4Z" transform="translate(-196.74 -295.73)" fill="#858585"/></g><g transform="translate(241.301 202.623)"><path d="M568.476,316.689V358.58l-34.93,20.959L498.61,358.58V316.689l34.936-20.959Zm-68.948,41.363,34.011,20.411,34.012-20.411V317.21L533.54,296.8,499.528,317.21Z" transform="translate(-498.61 -295.73)" fill="#858585"/></g><g transform="translate(241.301 243.986)"><path d="M568.476,377.059V418.95l-34.93,20.959L498.61,418.95V377.059L533.546,356.1Zm-68.948,41.37L533.54,438.84l34.012-20.411V377.587L533.54,357.176l-34.011,20.411Z" transform="translate(-498.61 -356.1)" fill="#d5d5d5"/></g><g transform="translate(206.83 264.672)"><path d="M518.166,407.249V449.14L483.23,470.1,448.3,449.14V407.249l34.93-20.959Zm-68.948,41.37L483.23,469.03l34.011-20.411V407.77L483.23,387.359,449.218,407.77Z" transform="translate(-448.3 -386.29)" fill="#858585"/></g><g transform="translate(275.778 264.672)"><path d="M618.789,407.249V449.14L583.86,470.1,548.93,449.14V407.249l34.93-20.959Zm-68.941,41.37L583.86,469.03l34.011-20.411V407.77L583.86,387.359,549.848,407.77Z" transform="translate(-548.93 -386.29)" fill="#212121"/></g><g transform="translate(68.941 16.471)"><path d="M316.916,45V86.89L281.98,107.849,247.05,86.89V45L281.98,24.04Zm-68.948,41.37,34.011,20.4,34.012-20.4V45.52L281.98,25.109,247.968,45.52Z" transform="translate(-247.05 -24.04)" fill="#b7b7b7"/></g><g transform="translate(103.412 37.156)"><path d="M367.226,75.189V117.08L332.29,138.039,297.36,117.08V75.189L332.29,54.23Zm-68.948,41.363,34.011,20.4,34.012-20.4V75.71l-34.012-20.4-34.011,20.4Z" transform="translate(-297.36 -54.23)" fill="#212121"/></g><g transform="translate(206.83 57.841)"><path d="M518.166,105.379V147.27L483.23,168.229,448.3,147.27V105.379L483.23,84.42Zm-68.948,41.363,34.011,20.411,34.011-20.411V105.9L483.23,85.489,449.218,105.9Z" transform="translate(-448.3 -84.42)" fill="#212121"/></g><g transform="translate(241.301 119.89)"><path d="M568.476,195.939V237.83l-34.93,20.959L498.61,237.83V195.939l34.936-20.959ZM499.528,237.3l34.011,20.4,34.012-20.4V196.453L533.54,176.042l-34.011,20.411Z" transform="translate(-498.61 -174.98)" fill="#858585"/></g><g transform="translate(275.778 140.575)"><path d="M618.789,226.129V268.02L583.86,288.979,548.93,268.02V226.129l34.93-20.959Zm-68.941,41.363,34.012,20.4,34.011-20.4V226.643L583.86,206.232l-34.012,20.411Z" transform="translate(-548.93 -205.17)" fill="#212121"/></g><g transform="translate(310.255 119.89)"><path d="M669.109,195.939V237.83l-34.93,20.959L599.25,237.83V195.939l34.93-20.959ZM600.161,237.3l34.011,20.4,34.011-20.4V196.453l-34.011-20.411-34.011,20.411Z" transform="translate(-599.25 -174.98)" fill="#b7b7b7"/></g><g transform="translate(310.255 37.156)"><path d="M669.109,75.189V117.08l-34.93,20.959L599.25,117.08V75.189L634.18,54.23Zm-68.948,41.363,34.011,20.411,34.011-20.411V75.71L634.173,55.3,600.161,75.71Z" transform="translate(-599.25 -54.23)" fill="#858585"/></g><g transform="translate(310.255 161.253)"><path d="M669.109,256.309V298.2l-34.93,20.959L599.25,298.2V256.309l34.93-20.959Zm-68.948,41.37,34.011,20.4,34.011-20.4V256.837l-34.011-20.411-34.011,20.411Z" transform="translate(-599.25 -235.35)" fill="#858585"/></g><g transform="translate(275.778 181.938)"><path d="M618.789,286.5V328.39L583.86,349.349,548.93,328.39V286.5l34.93-20.959Zm-68.941,41.37,34.012,20.4,34.011-20.4V287.02L583.86,266.609,549.848,287.02Z" transform="translate(-548.93 -265.54)" fill="#858585"/></g><g transform="translate(137.889 99.205)"><path d="M417.539,165.749v41.884l-34.93,20.959-34.93-20.959V165.749l34.93-20.959ZM348.6,207.119,382.61,227.53l34.011-20.411V166.27L382.61,145.859,348.6,166.27Z" transform="translate(-347.68 -144.79)" fill="#b7b7b7"/></g><g transform="translate(206.83 99.212)"><path d="M518.166,165.752v41.891L483.23,228.6,448.3,207.643V165.759L483.23,144.8Zm-68.948,41.37,34.011,20.411,34.011-20.411V166.273L483.23,145.862l-34.011,20.411Z" transform="translate(-448.3 -144.8)" fill="#535353"/></g><g transform="translate(103.412 78.52)"><path d="M367.226,135.559V177.45L332.29,198.409,297.36,177.45V135.559L332.29,114.6Zm-68.948,41.37,34.011,20.4,34.012-20.4V136.08L332.29,115.669,298.278,136.08Z" transform="translate(-297.36 -114.6)" fill="#858585"/></g><g transform="translate(68.941 99.198)"><path d="M316.916,165.746V207.63L281.98,228.589,247.05,207.63V165.739l34.93-20.959Zm-68.948,41.37,34.011,20.411,34.012-20.411V166.267L281.98,145.856l-34.011,20.4v40.856Z" transform="translate(-247.05 -144.78)" fill="#d5d5d5"/></g><g transform="translate(68.941 57.848)"><path d="M316.916,105.382v41.891L281.98,168.232l-34.93-20.959V105.389L281.98,84.43Zm-68.948,41.363,34.011,20.411,34.012-20.411V105.9L281.98,85.492,247.968,105.9v40.843Z" transform="translate(-247.05 -84.43)" fill="#d5d5d5"/></g><g transform="translate(34.471 78.52)"><path d="M266.6,135.559V177.45l-34.93,20.959L196.74,177.45V135.559L231.67,114.6Zm-68.941,41.37,34.012,20.4,34.011-20.4V136.08L231.67,115.669,197.658,136.08Z" transform="translate(-196.74 -114.6)" fill="#858585"/></g><g transform="translate(0 140.575)"><path d="M216.289,226.129v41.884l-34.93,20.959-34.93-20.959V226.129l34.93-20.959Zm-68.948,41.363,34.011,20.4,34.011-20.4V226.643l-34.011-20.411-34.011,20.411Z" transform="translate(-146.43 -205.17)" fill="#d5d5d5"/></g><g transform="translate(103.412 161.253)"><path d="M367.226,256.309V298.2L332.29,319.159,297.36,298.2V256.309l34.93-20.959Zm-68.948,41.37,34.011,20.4,34.012-20.4V256.83L332.29,236.419,298.278,256.83Z" transform="translate(-297.36 -235.35)" fill="#212121"/></g><g transform="translate(137.889 140.575)"><path d="M417.539,226.129V268.02l-34.93,20.959L347.68,268.02V226.129l34.93-20.959ZM348.6,267.492l34.011,20.4,34.011-20.4V226.643l-34.011-20.4-34.011,20.4Z" transform="translate(-347.68 -205.17)" fill="#535353"/></g><path d="M299.148,386.129a2.069,2.069,0,1,1-2.069-2.069A2.067,2.067,0,0,1,299.148,386.129Z" transform="translate(-193.209 -120.916)"/><path d="M198.9,325.434a2.758,2.758,0,1,1-2.761-2.754A2.762,2.762,0,0,1,198.9,325.434Z" transform="translate(-161.212 -101.592)" fill="#858585"/><path d="M299.032,205.106a1.836,1.836,0,1,1-1.836-1.836A1.836,1.836,0,0,1,299.032,205.106Z" transform="translate(-193.319 -63.997)"/><g transform="translate(172.36 161.253)"><path d="M467.849,256.309V298.2l-34.93,20.959L397.99,298.2V256.309l34.93-20.959Zm-68.941,41.37,34.012,20.4,34.011-20.4V256.837L432.92,236.426l-34.012,20.411Z" transform="translate(-397.99 -235.35)" fill="#212121"/></g><path d="M399.652,325.856a1.836,1.836,0,1,1-1.836-1.836A1.836,1.836,0,0,1,399.652,325.856Z" transform="translate(-224.998 -102.014)"/><path d="M551.331,295.033a3.22,3.22,0,1,1-3.22-3.213A3.221,3.221,0,0,1,551.331,295.033Z" transform="translate(-271.88 -91.876)"/><path d="M701.4,325.96a1.61,1.61,0,1,1-1.61-1.61A1.608,1.608,0,0,1,701.4,325.96Z" transform="translate(-320.141 -102.117)"/><path d="M651.338,416.309a2.069,2.069,0,1,1-2.069-2.069A2.067,2.067,0,0,1,651.338,416.309Z" transform="translate(-304.091 -130.418)"/><path d="M651.338,235.179a2.069,2.069,0,1,1-2.069-2.069A2.067,2.067,0,0,1,651.338,235.179Z" transform="translate(-304.091 -73.392)"/><path d="M551.085,476.371a2.758,2.758,0,1,1-2.754-2.761A2.754,2.754,0,0,1,551.085,476.371Z" transform="translate(-272.094 -149.11)"/><path d="M650.842,537.481a1.151,1.151,0,1,1-1.151-1.151A1.149,1.149,0,0,1,650.842,537.481Z" transform="translate(-304.513 -168.857)" fill="#535353"/><path d="M600.9,567.356a1.836,1.836,0,1,1-1.836-1.836A1.836,1.836,0,0,1,600.9,567.356Z" transform="translate(-288.359 -178.047)" fill="#858585"/><path d="M550.718,174.809a2.069,2.069,0,1,1-2.069-2.069A2.067,2.067,0,0,1,550.718,174.809Z" transform="translate(-272.412 -54.385)"/><path d="M399.156,24.4a.918.918,0,1,1-.918-.918A.918.918,0,0,1,399.156,24.4Z" transform="translate(-225.42 -7.392)"/><path d="M450.337,53.848a2.528,2.528,0,1,1-2.528-2.528A2.526,2.526,0,0,1,450.337,53.848Z" transform="translate(-240.519 -16.157)" fill="#858585"/><path d="M652.589,173.754a4.365,4.365,0,1,1-4.365-4.364A4.367,4.367,0,0,1,652.589,173.754Z" transform="translate(-303.039 -53.33)" fill="#d5d5d5"/><path d="M249.335,114.007a2.987,2.987,0,1,1-2.987-2.987A2.986,2.986,0,0,1,249.335,114.007Z" transform="translate(-176.947 -34.953)" fill="#d5d5d5"/><path d="M198.27,24.08a1.61,1.61,0,1,1-1.61-1.61A1.608,1.608,0,0,1,198.27,24.08Z" transform="translate(-161.737 -7.074)" fill="#858585"/><path d="M602.147,83.3a4.138,4.138,0,1,1-4.138-4.138A4.135,4.135,0,0,1,602.147,83.3Z" transform="translate(-287.301 -24.923)"/><path d="M349.342,114.536a1.836,1.836,0,1,1-1.836-1.836A1.836,1.836,0,0,1,349.342,114.536Z" transform="translate(-209.158 -35.482)" fill="#858585"/><path d="M450.959,234.439a3.679,3.679,0,1,1-3.679-3.679A3.676,3.676,0,0,1,450.959,234.439Z" transform="translate(-239.99 -72.652)" fill="#535353"/><path d="M399.652,386.236a1.836,1.836,0,1,1-1.836-1.836A1.836,1.836,0,0,1,399.652,386.236Z" transform="translate(-224.998 -121.023)" fill="#535353"/><path d="M348.714,477.322a.692.692,0,1,1-.692-.692A.69.69,0,0,1,348.714,477.322Z" transform="translate(-209.681 -150.061)"/><path d="M727.445,424l-26.66,15.992v40.849l26.66,15.992V497.9L699.86,481.357V439.467l27.585-16.547Z" transform="translate(-320.67 -133.151)" fill="#212121"/><path d="M727.445,303.239l-26.66,16V360.08l26.66,16v1.076L699.86,360.608V318.717l27.585-16.547Z" transform="translate(-320.67 -95.134)" fill="#212121"/><path d="M649.55,388.763V346.879l34.937-20.959,27.119,16.266v1.076l-27.119-16.273L650.468,347.4v40.843l34.018,20.411,27.119-16.273v1.076l-27.119,16.266Z" transform="translate(-304.831 -102.612)" fill="#858585"/><path d="M498.61,58.636V16.745L526.523,0h1.788L499.528,17.266V58.116l34.018,20.4,34.012-20.4V17.266L538.781,0h1.788l27.907,16.745V58.636L533.546,79.6Z" transform="translate(-257.309)" fill="#212121"/></g><g transform="translate(128.865 346.302)"><path d="M562.34,975.8v35.286h.857v-34.8L594.823,957.3l31.627,18.979v34.8h.856V975.8L594.823,956.31Z" transform="translate(-305.911 -647.384)" fill="#264899"/><path d="M515.56,1003.866v16.053h.856v-15.567l31.62-18.979,31.627,18.979v15.567h.856v-16.053L548.037,984.38Z" transform="translate(-291.183 -656.221)" fill="#264899"/><path d="M728.336,946.812l-24.789-14.875V893.958l24.789-14.875v-.993L702.69,893.472v38.952l25.646,15.382Z" transform="translate(-350.098 -622.757)" fill="#264899"/><path d="M655.91,863.516v38.952l32.477,19.486,25.221-15.128v-.994L688.387,920.96l-31.62-18.979V864l31.62-18.979,25.221,15.135v-1L688.387,844.03Z" transform="translate(-335.37 -612.034)" fill="#264899"/><g transform="translate(64.104 78.143)"><path d="M314.124,697.4,281.64,677.918V638.966l32.484-19.486,32.484,19.486v38.952ZM282.5,677.424,314.124,696.4l31.627-18.979V639.446l-31.627-18.972L282.5,639.446Z" transform="translate(-281.64 -619.48)" fill="#264899"/></g><g transform="translate(32.052 58.91)"><path d="M267.344,669.334,234.86,649.848V610.9l32.484-19.493L299.827,610.9v38.945Zm-31.627-19.973,31.627,18.979,31.627-18.979V611.383L267.344,592.4l-31.627,18.979v37.979Z" transform="translate(-234.86 -591.41)" fill="#264899"/></g><g transform="translate(32.052 97.375)"><path d="M267.344,725.474,234.86,705.988V667.036l32.484-19.486,32.484,19.486v38.951ZM235.716,705.5l31.627,18.979L298.971,705.5V667.523l-31.627-18.979-31.627,18.972V705.5Z" transform="translate(-234.86 -647.55)" fill="#264899"/></g><g transform="translate(224.37 97.369)"><path d="M548.034,725.47,515.55,705.977V667.026l32.484-19.486,32.484,19.486v38.951Zm-31.62-19.979L548.04,724.47l31.627-18.979V667.513L548.034,648.54l-31.627,18.972v37.978Z" transform="translate(-515.55 -647.54)" fill="#264899"/></g><g transform="translate(224.37 58.91)"><path d="M548.034,669.334,515.55,649.848V610.9l32.484-19.493L580.517,610.9v38.945Zm-31.62-19.973L548.04,668.34l31.627-18.979V611.383L548.04,592.4l-31.627,18.979Z" transform="translate(-515.55 -591.41)" fill="#264899"/></g><g transform="translate(192.325 39.678)"><path d="M501.257,641.263,468.78,621.778V582.826l32.477-19.486,32.484,19.486v38.952ZM469.63,621.291l31.627,18.979,31.627-18.979V583.313L501.257,564.34,469.63,583.313Z" transform="translate(-468.78 -563.34)" fill="#264899"/></g><g transform="translate(256.429 39.678)"><path d="M594.823,641.263,562.34,621.778V582.826l32.484-19.486,32.484,19.486v38.952ZM563.2,621.291l31.627,18.979,31.627-18.979V583.313L594.823,564.34,563.2,583.313Z" transform="translate(-562.34 -563.34)" fill="#264899"/></g><g transform="translate(64.104 270.461)"><path d="M314.124,978.094,281.64,958.608V919.656l32.484-19.486,32.484,19.486v38.951ZM282.5,958.121,314.124,977.1l31.627-18.979V920.143l-31.627-18.979L282.5,920.143Z" transform="translate(-281.64 -900.17)" fill="#264899"/></g><g transform="translate(96.156 251.222)"><path d="M360.9,950.02,328.42,930.528V891.576L360.9,872.09l32.484,19.486v38.952Zm-31.62-19.973,31.627,18.979,31.627-18.979V892.069L360.91,873.09l-31.627,18.979Z" transform="translate(-328.42 -872.09)" fill="#264899"/></g><g transform="translate(192.325 231.996)"><path d="M501.257,921.954,468.78,902.467V863.516l32.477-19.486,32.484,19.486v38.951ZM469.63,901.981l31.627,18.979,31.627-18.979V864l-31.627-18.979L469.63,864Z" transform="translate(-468.78 -844.03)" fill="#264899"/></g><g transform="translate(224.37 174.292)"><path d="M548.034,837.74,515.55,818.248V779.3l32.484-19.486L580.517,779.3v38.952Zm-31.62-19.973,31.627,18.979,31.627-18.979V779.789L548.04,760.81l-31.627,18.979Z" transform="translate(-515.55 -759.81)" fill="#264899"/></g><g transform="translate(256.429 155.073)"><path d="M594.823,809.677,562.34,790.191V751.246l32.484-19.486,32.484,19.486v38.945ZM563.2,789.7l31.627,18.979L626.451,789.7V751.726l-31.627-18.979L563.2,751.726Z" transform="translate(-562.34 -731.76)" fill="#264899"/></g><g transform="translate(288.481 174.292)"><path d="M641.6,837.74,609.12,818.248V779.3L641.6,759.81,674.087,779.3v38.952Zm-31.627-19.973L641.6,836.747l31.627-18.979V779.789L641.6,760.81l-31.627,18.979Z" transform="translate(-609.12 -759.81)" fill="#264899"/></g><g transform="translate(288.481 251.222)"><path d="M641.6,950.02,609.12,930.528V891.576L641.6,872.09l32.484,19.486v38.952Zm-31.627-19.973L641.6,949.027l31.627-18.979V892.069L641.6,873.09l-31.627,18.979Z" transform="translate(-609.12 -872.09)" fill="#264899"/></g><g transform="translate(288.481 135.84)"><path d="M641.6,781.614,609.12,762.128V723.176L641.6,703.69l32.484,19.486v38.952Zm-31.627-19.979L641.6,780.613l31.627-18.979V723.656L641.6,704.677l-31.627,18.979Z" transform="translate(-609.12 -703.69)" fill="#264899"/></g><g transform="translate(256.429 116.601)"><path d="M594.823,753.54,562.34,734.047V695.1l32.484-19.486L627.307,695.1v38.951ZM563.2,733.561l31.627,18.979,31.627-18.979V695.583L594.823,676.6,563.2,695.583Z" transform="translate(-562.34 -675.61)" fill="#264899"/></g><g transform="translate(128.215 193.531)"><path d="M407.694,865.814,375.21,846.328V807.376l32.484-19.486,32.484,19.486v38.951Zm-31.627-19.973,31.627,18.979,31.627-18.979V807.863L407.694,788.89l-31.627,18.972Z" transform="translate(-375.21 -787.89)" fill="#264899"/></g><g transform="translate(192.325 193.531)"><path d="M501.257,865.814,468.78,846.328V807.376l32.477-19.486,32.484,19.486v38.951ZM469.63,845.841l31.627,18.979,31.627-18.979V807.863L501.257,788.89,469.63,807.863Z" transform="translate(-468.78 -787.89)" fill="#264899"/></g><g transform="translate(96.156 212.764)"><path d="M360.9,893.89,328.42,874.4V835.446L360.9,815.96l32.484,19.486V874.4Zm-31.62-19.979L360.91,892.89l31.627-18.979V835.932L360.91,816.96l-31.627,18.972Z" transform="translate(-328.42 -815.96)" fill="#264899"/></g><g transform="translate(64.104 193.531)"><path d="M314.124,865.814,281.64,846.328V807.376l32.484-19.486,32.484,19.486v38.951ZM282.5,845.841l31.627,18.979,31.627-18.979V807.863L314.124,788.89,282.5,807.863Z" transform="translate(-281.64 -787.89)" fill="#264899"/></g><g transform="translate(64.104 231.996)"><path d="M314.124,921.954,281.64,902.467V863.516l32.484-19.486,32.484,19.486v38.951ZM282.5,901.981l31.627,18.979,31.627-18.979V864l-31.627-18.979L282.5,864Z" transform="translate(-281.64 -844.03)" fill="#264899"/></g><g transform="translate(32.052 212.764)"><path d="M267.344,893.89,234.86,874.4V835.446l32.484-19.486,32.484,19.486V874.4Zm-31.627-19.979,31.627,18.979,31.627-18.979V835.932L267.344,816.96l-31.627,18.972v37.979Z" transform="translate(-234.86 -815.96)" fill="#264899"/></g><g transform="translate(0 155.066)"><path d="M220.564,809.674,188.08,790.188V751.236l32.484-19.486,32.484,19.486v38.952ZM188.936,789.7l31.627,18.979L252.191,789.7V751.722l-31.627-18.979-31.627,18.979Z" transform="translate(-188.08 -731.75)" fill="#264899"/></g><g transform="translate(96.156 135.84)"><path d="M360.9,781.614,328.42,762.128V723.176L360.9,703.69l32.484,19.486v38.952Zm-31.62-19.979,31.627,18.979,31.627-18.979V723.656L360.91,704.677l-31.627,18.979Z" transform="translate(-328.42 -703.69)" fill="#264899"/></g><g transform="translate(128.215 155.073)"><path d="M407.694,809.677,375.21,790.191V751.246l32.484-19.486,32.484,19.486v38.945ZM376.066,789.7l31.627,18.979L439.321,789.7V751.726l-31.627-18.979-31.627,18.979Z" transform="translate(-375.21 -731.76)" fill="#264899"/></g><path d="M330.091,675.455a1.925,1.925,0,1,0-1.925,1.925A1.927,1.927,0,0,0,330.091,675.455Z" transform="translate(-231.578 -558.354)" fill="#264899"/><path d="M236.875,731.3a2.563,2.563,0,1,0-2.563,2.562A2.563,2.563,0,0,0,236.875,731.3Z" transform="translate(-201.829 -575.736)" fill="#264899"/><path d="M329.976,843.973a1.713,1.713,0,1,0-1.713,1.706A1.714,1.714,0,0,0,329.976,843.973Z" transform="translate(-231.676 -611.477)" fill="#264899"/><g transform="translate(160.266 135.84)"><path d="M454.474,781.614,421.99,762.128V723.176l32.484-19.486,32.484,19.486v38.952Zm-31.627-19.979,31.627,18.979L486.1,761.634V723.656l-31.627-18.979-31.627,18.979Z" transform="translate(-421.99 -703.69)" fill="#264899"/></g><path d="M423.536,731.7a1.713,1.713,0,1,0-1.713,1.713A1.708,1.708,0,0,0,423.536,731.7Z" transform="translate(-261.132 -576.13)" fill="#264899"/><path d="M564.578,759.174a2.994,2.994,0,1,0-2.994,2.994A3,3,0,0,0,564.578,759.174Z" transform="translate(-304.73 -584.375)" fill="#264899"/><path d="M704.127,731.794a1.494,1.494,0,1,0-1.494,1.494A1.493,1.493,0,0,0,704.127,731.794Z" transform="translate(-349.61 -576.227)" fill="#264899"/><path d="M657.571,647.385a1.925,1.925,0,1,0-1.925,1.925A1.927,1.927,0,0,0,657.571,647.385Z" transform="translate(-334.681 -549.517)" fill="#264899"/><path d="M657.571,815.805a1.925,1.925,0,1,0-1.925,1.925A1.927,1.927,0,0,0,657.571,815.805Z" transform="translate(-334.681 -602.541)" fill="#264899"/><path d="M564.355,590.952a2.563,2.563,0,1,0-2.563,2.563A2.563,2.563,0,0,0,564.355,590.952Z" transform="translate(-304.932 -531.549)" fill="#264899"/><path d="M657.108,535.5a1.069,1.069,0,1,0-1.069,1.069A1.07,1.07,0,0,0,657.108,535.5Z" transform="translate(-335.074 -514.56)" fill="#264899"/><path d="M610.666,507.136a1.713,1.713,0,1,0-1.713,1.713A1.708,1.708,0,0,0,610.666,507.136Z" transform="translate(-320.047 -505.43)" fill="#264899"/><path d="M564,871.945a1.925,1.925,0,1,0-1.925,1.925A1.927,1.927,0,0,0,564,871.945Z" transform="translate(-305.221 -620.216)" fill="#264899"/><path d="M423.073,1012.786a.856.856,0,1,0-.856.856A.857.857,0,0,0,423.073,1012.786Z" transform="translate(-261.525 -664.895)" fill="#264899"/><path d="M470.67,984.03a2.35,2.35,0,1,0-2.35,2.35A2.349,2.349,0,0,0,470.67,984.03Z" transform="translate(-275.57 -655.371)" fill="#264899"/><path d="M658.729,870.963a4.06,4.06,0,1,0-4.063,4.056A4.059,4.059,0,0,0,658.729,870.963Z" transform="translate(-333.702 -619.234)" fill="#264899"/><path d="M283.77,927.692a2.775,2.775,0,1,0-2.775,2.775A2.778,2.778,0,0,0,283.77,927.692Z" transform="translate(-216.459 -637.498)" fill="#264899"/><path d="M236.3,1012.494a1.494,1.494,0,1,0-1.494,1.494A1.493,1.493,0,0,0,236.3,1012.494Z" transform="translate(-202.32 -664.602)" fill="#264899"/><path d="M611.824,955.274a3.847,3.847,0,1,0-3.85,3.844A3.844,3.844,0,0,0,611.824,955.274Z" transform="translate(-319.068 -645.847)" fill="#264899"/><path d="M376.756,928.183a1.713,1.713,0,1,0-1.713,1.706A1.714,1.714,0,0,0,376.756,928.183Z" transform="translate(-246.404 -637.989)" fill="#264899"/><path d="M471.248,815.119a3.419,3.419,0,1,0-3.419,3.419A3.415,3.415,0,0,0,471.248,815.119Z" transform="translate(-275.079 -601.855)" fill="#264899"/><path d="M423.536,675.556a1.713,1.713,0,1,0-1.713,1.713A1.708,1.708,0,0,0,423.536,675.556Z" transform="translate(-261.132 -558.455)" fill="#264899"/><path d="M376.181,591.834a.641.641,0,1,0-1.281,0,.641.641,0,0,0,1.281,0Z" transform="translate(-246.898 -532.43)" fill="#264899"/><path d="M728.336,609.972,703.546,595.1V557.125l24.789-14.875v-1L702.69,556.639v38.945l25.646,15.389Z" transform="translate(-350.098 -516.708)" fill="#264899"/><path d="M728.336,722.252l-24.789-14.875V669.4l24.789-14.868v-1L702.69,668.919v38.945l25.646,15.389Z" transform="translate(-350.098 -552.057)" fill="#264899"/><path d="M655.91,638.963v38.945L688.387,697.4l25.221-15.135v-.993L688.387,696.4l-31.62-18.979V639.442l31.62-18.972L713.607,635.6v-1L688.387,619.47Z" transform="translate(-335.37 -541.334)" fill="#264899"/><path d="M515.56,947.726v38.952l25.954,15.567h1.658l-26.756-16.053V948.213l31.62-18.972,31.627,18.972v37.979l-26.756,16.053h1.665l25.947-15.567V947.726L548.037,928.24Z" transform="translate(-291.183 -638.546)" fill="#264899"/></g><g transform="translate(203.692 180.431)"><path d="M597.51,291.644v-28.3h.685v27.914l25.372,15.224,25.372-15.224V263.34h.685v28.3l-26.057,15.635Z" transform="translate(-391.81 -263.34)" fill="#e5e5e5"/><path d="M559.98,276.214V263.34h.685v12.484l25.372,15.224,25.371-15.224V263.34h.685v12.874L586.037,291.85Z" transform="translate(-379.995 -263.34)" fill="#b3b3b3"/><path d="M730.665,309.382l-19.89,11.935v30.462l19.89,11.929v.8L710.09,352.17V320.927l20.575-12.347Z" transform="translate(-427.255 -277.583)" fill="#e5e5e5"/><path d="M672.57,373.179V341.935L698.62,326.3l20.233,12.134v.8L698.62,327.1l-25.365,15.217v30.469l25.365,15.217,20.233-12.134v.8L698.62,388.807Z" transform="translate(-415.442 -283.162)" fill="#212121"/><g transform="translate(51.421 166.556)"><path d="M424.453,522.065v31.243L398.4,568.944,372.34,553.309V522.065L398.4,506.43Zm-51.421,30.853L398.4,568.143l25.372-15.224V522.456L398.4,507.232l-25.372,15.224Z" transform="translate(-372.34 -506.43)" fill="#e5e5e5"/></g><g transform="translate(25.714 181.979)"><path d="M386.933,544.575v31.243l-26.057,15.635L334.82,575.819V544.575l26.057-15.635Zm-51.428,30.86,25.372,15.218,25.372-15.224V544.966l-25.372-15.224-25.372,15.224Z" transform="translate(-334.82 -528.94)" fill="#212121"/></g><g transform="translate(25.714 151.126)"><path d="M386.933,499.545v31.244l-26.057,15.635L334.82,530.789V499.545l26.057-15.635ZM335.505,530.4l25.372,15.224L386.248,530.4V499.936l-25.372-15.224-25.372,15.224Z" transform="translate(-334.82 -483.91)" fill="#b3b3b3"/></g><g transform="translate(179.985 151.126)"><path d="M612.093,499.545v31.244l-26.057,15.635L559.98,530.789V499.545l26.057-15.635ZM560.665,530.4l25.372,15.224L611.408,530.4V499.936l-25.372-15.224-25.372,15.224Z" transform="translate(-559.98 -483.91)" fill="#b3b3b3"/></g><g transform="translate(179.985 181.979)"><path d="M612.093,544.575v31.243l-26.057,15.635L559.98,575.819V544.575l26.057-15.635Zm-51.428,30.853,25.372,15.224,25.372-15.224V544.966l-25.372-15.224-25.372,15.224Z" transform="translate(-559.98 -528.94)" fill="#e5e5e5"/></g><g transform="translate(154.271 197.409)"><path d="M574.563,567.1v31.243l-26.057,15.635L522.45,598.339V567.1l26.057-15.635Zm-51.422,30.853,25.372,15.224,25.372-15.224V567.479l-25.372-15.224-25.372,15.224Z" transform="translate(-522.45 -551.46)" fill="#b3b3b3"/></g><g transform="translate(205.7 197.409)"><path d="M649.624,567.1v31.243l-26.057,15.635L597.51,598.339V567.1l26.057-15.635ZM598.2,597.948l25.372,15.224,25.372-15.224V567.479l-25.372-15.224L598.2,567.479Z" transform="translate(-597.51 -551.46)" fill="#212121"/></g><g transform="translate(51.421 12.278)"><path d="M424.453,296.9v31.243L398.4,343.767,372.34,328.139V296.9L398.4,281.26Zm-51.421,30.853L398.4,342.973l25.372-15.224V297.279L398.4,282.055l-25.372,15.224Z" transform="translate(-372.34 -281.26)" fill="#d2d2d2"/></g><g transform="translate(77.136 27.708)"><path d="M461.983,319.415v31.243l-26.057,15.635L409.87,350.659V319.415l26.057-15.635Zm-51.421,30.853,25.372,15.224,25.372-15.224V319.8l-25.372-15.224L410.562,319.8Z" transform="translate(-409.87 -303.78)" fill="#212121"/></g><g transform="translate(154.271 43.138)"><path d="M574.563,341.935v31.243l-26.057,15.635L522.45,373.179V341.935L548.507,326.3Zm-51.422,30.853,25.372,15.224,25.372-15.224V342.326L548.514,327.1l-25.372,15.224Z" transform="translate(-522.45 -326.3)" fill="#212121"/></g><g transform="translate(179.985 89.421)"><path d="M612.093,409.485v31.243l-26.057,15.629L559.98,440.729V409.485l26.057-15.635Zm-51.428,30.853,25.372,15.224,25.372-15.224V409.869l-25.372-15.224-25.372,15.224Z" transform="translate(-559.98 -393.85)" fill="#b3b3b3"/></g><g transform="translate(205.7 104.844)"><path d="M649.624,432v31.243l-26.057,15.635L597.51,463.239V432l26.057-15.635ZM598.2,462.848l25.372,15.224,25.372-15.224V432.379l-25.372-15.224L598.2,432.379Z" transform="translate(-597.51 -416.36)" fill="#212121"/></g><g transform="translate(231.407 89.421)"><path d="M687.143,409.485v31.243l-26.057,15.629L635.03,440.729V409.485l26.057-15.635Zm-51.422,30.853,25.372,15.224,25.372-15.224V409.869l-25.372-15.224-25.372,15.224v30.469Z" transform="translate(-635.03 -393.85)" fill="#d2d2d2"/></g><g transform="translate(231.407 27.708)"><path d="M687.143,319.415v31.243l-26.057,15.635L635.03,350.659V319.415l26.057-15.635Zm-51.422,30.853,25.372,15.224,25.372-15.224V319.8l-25.372-15.224L635.722,319.8v30.469Z" transform="translate(-635.03 -303.78)" fill="#b3b3b3"/></g><g transform="translate(231.407 120.273)"><path d="M687.143,454.515v31.243l-26.057,15.635L635.03,485.759V454.515l26.057-15.635Zm-51.422,30.853,25.372,15.217,25.372-15.217V454.9l-25.372-15.224L635.722,454.9v30.469Z" transform="translate(-635.03 -438.88)" fill="#b3b3b3"/></g><g transform="translate(205.7 135.696)"><path d="M649.624,477.025v31.243L623.567,523.9,597.51,508.269V477.025l26.057-15.635ZM598.2,507.885,623.567,523.1l25.372-15.218V477.416l-25.372-15.224L598.2,477.416Z" transform="translate(-597.51 -461.39)" fill="#b3b3b3"/></g><g transform="translate(102.85 73.991)"><path d="M499.513,386.965v31.243l-26.057,15.629L447.4,418.209V386.965l26.057-15.635Zm-51.428,30.853,25.372,15.224,25.372-15.224V387.349l-25.372-15.224-25.372,15.224Z" transform="translate(-447.4 -371.33)" fill="#d2d2d2"/></g><g transform="translate(154.271 73.991)"><path d="M574.563,386.965v31.243l-26.057,15.629L522.45,418.209V386.965l26.057-15.635Zm-51.422,30.853,25.372,15.224,25.372-15.224V387.349l-25.372-15.224-25.372,15.224Z" transform="translate(-522.45 -371.33)" fill="#949494"/></g><g transform="translate(77.136 58.561)"><path d="M461.983,364.445v31.243l-26.057,15.629L409.87,395.689V364.445l26.057-15.635ZM410.562,395.3l25.372,15.224L461.305,395.3V364.836l-25.372-15.224-25.372,15.224Z" transform="translate(-409.87 -348.81)" fill="#b3b3b3"/></g><g transform="translate(51.421 73.991)"><path d="M424.453,386.965v31.243L398.4,433.837,372.34,418.209V386.965L398.4,371.33Zm-51.421,30.853L398.4,433.043l25.372-15.224V387.349L398.4,372.125l-25.372,15.224Z" transform="translate(-372.34 -371.33)" fill="#e5e5e5"/></g><g transform="translate(51.421 43.138)"><path d="M424.453,341.935v31.243L398.4,388.814,372.34,373.179V341.935L398.4,326.3Zm-51.421,30.853L398.4,388.013l25.372-15.224V342.326L398.4,327.1l-25.372,15.224Z" transform="translate(-372.34 -326.3)" fill="#e5e5e5"/></g><g transform="translate(25.714 58.561)"><path d="M386.933,364.445v31.243l-26.057,15.629L334.82,395.689V364.445l26.057-15.635ZM335.505,395.3l25.372,15.224L386.248,395.3V364.836l-25.372-15.224-25.372,15.224Z" transform="translate(-334.82 -348.81)" fill="#b3b3b3"/></g><g transform="translate(0 104.844)"><path d="M349.4,432v31.243l-26.057,15.635L297.29,463.239V432l26.057-15.635Zm-51.428,30.853,25.372,15.224,25.372-15.224V432.379l-25.372-15.224-25.372,15.224Z" transform="translate(-297.29 -416.36)" fill="#e5e5e5"/></g><g transform="translate(77.136 120.273)"><path d="M461.983,454.515v31.243l-26.057,15.635L409.87,485.759V454.515l26.057-15.635Zm-51.421,30.853,25.372,15.217,25.372-15.217V454.9l-25.372-15.224L410.562,454.9Z" transform="translate(-409.87 -438.88)" fill="#212121"/></g><g transform="translate(102.85 104.844)"><path d="M499.513,432v31.243l-26.057,15.635L447.4,463.239V432l26.057-15.635Zm-51.428,30.853,25.372,15.224,25.372-15.224V432.379l-25.372-15.224-25.372,15.224Z" transform="translate(-447.4 -416.36)" fill="#949494"/></g><path d="M411.213,551.342a1.542,1.542,0,1,1-1.542-1.542A1.544,1.544,0,0,1,411.213,551.342Z" transform="translate(-332.187 -353.528)"/><path d="M336.431,506.065a2.055,2.055,0,1,1-2.056-2.055A2.053,2.053,0,0,1,336.431,506.065Z" transform="translate(-308.319 -339.112)" fill="#b3b3b3"/><path d="M411.121,416.32a1.37,1.37,0,1,1-1.37-1.37A1.37,1.37,0,0,1,411.121,416.32Z" transform="translate(-332.265 -311.072)"/><g transform="translate(128.557 120.273)"><path d="M537.033,454.515v31.243l-26.057,15.635L484.92,485.759V454.515l26.057-15.635Zm-51.422,30.853,25.372,15.217,25.372-15.217V454.9l-25.372-15.224L485.612,454.9Z" transform="translate(-484.92 -438.88)" fill="#212121"/></g><path d="M486.171,506.38a1.37,1.37,0,1,1-1.37-1.37A1.37,1.37,0,0,1,486.171,506.38Z" transform="translate(-355.894 -339.427)"/><path d="M599.306,483.4a2.4,2.4,0,1,1-2.4-2.4A2.4,2.4,0,0,1,599.306,483.4Z" transform="translate(-390.866 -331.867)"/><path d="M711.238,506.459a1.2,1.2,0,1,1-1.2-1.2A1.2,1.2,0,0,1,711.238,506.459Z" transform="translate(-426.861 -339.505)"/><path d="M673.9,573.852a1.542,1.542,0,1,1-1.542-1.542A1.544,1.544,0,0,1,673.9,573.852Z" transform="translate(-414.891 -360.615)"/><path d="M673.9,438.752a1.542,1.542,0,1,1-1.542-1.542A1.544,1.544,0,0,1,673.9,438.752Z" transform="translate(-414.891 -318.081)"/><path d="M599.121,618.646a2.055,2.055,0,1,1-2.056-2.056A2.053,2.053,0,0,1,599.121,618.646Z" transform="translate(-391.023 -374.556)"/><circle cx="0.856" cy="0.856" r="0.856" transform="translate(256.614 274.093)" fill="#949494"/><path d="M636.281,686.52a1.37,1.37,0,1,1-1.37-1.37A1.37,1.37,0,0,1,636.281,686.52Z" transform="translate(-403.154 -396.142)" fill="#b3b3b3"/><path d="M598.843,393.722a1.542,1.542,0,1,1-1.542-1.542A1.544,1.544,0,0,1,598.843,393.722Z" transform="translate(-391.259 -303.904)"/><path d="M485.8,281.535a.685.685,0,1,1-.685-.685A.687.687,0,0,1,485.8,281.535Z" transform="translate(-356.209 -268.853)"/><path d="M523.978,303.494a1.884,1.884,0,1,1-1.884-1.884A1.883,1.883,0,0,1,523.978,303.494Z" transform="translate(-367.474 -275.389)" fill="#b3b3b3"/><path d="M674.829,392.934a3.254,3.254,0,1,1-3.254-3.255A3.253,3.253,0,0,1,674.829,392.934Z" transform="translate(-414.104 -303.116)" fill="#e5e5e5"/><path d="M374.054,348.377a2.227,2.227,0,1,1-2.227-2.227A2.227,2.227,0,0,1,374.054,348.377Z" transform="translate(-320.056 -289.412)" fill="#e5e5e5"/><path d="M335.968,281.3a1.2,1.2,0,1,1-1.2-1.2A1.2,1.2,0,0,1,335.968,281.3Z" transform="translate(-308.712 -268.617)" fill="#b3b3b3"/><path d="M637.206,325.463a3.083,3.083,0,1,1-3.083-3.083A3.083,3.083,0,0,1,637.206,325.463Z" transform="translate(-402.367 -281.928)"/><path d="M448.641,348.77a1.37,1.37,0,1,1-1.37-1.37A1.37,1.37,0,0,1,448.641,348.77Z" transform="translate(-344.078 -289.805)" fill="#b3b3b3"/><path d="M524.441,438.2a2.741,2.741,0,1,1-2.741-2.741A2.74,2.74,0,0,1,524.441,438.2Z" transform="translate(-367.08 -317.53)" fill="#949494"/><path d="M486.171,551.42a1.37,1.37,0,1,1-1.37-1.37A1.374,1.374,0,0,1,486.171,551.42Z" transform="translate(-355.894 -353.607)" fill="#949494"/><path d="M448.178,619.354a.514.514,0,0,1-1.028,0,.514.514,0,1,1,1.028,0Z" transform="translate(-344.472 -375.265)"/><path d="M730.665,579.582l-19.89,11.929v30.469l19.89,11.929v.8L710.09,622.37V591.12l20.575-12.34Z" transform="translate(-427.255 -362.652)" fill="#212121"/><path d="M730.665,489.515l-19.89,11.935v30.462l19.89,11.936v.795L710.09,532.3V501.06l20.575-12.34Z" transform="translate(-427.255 -334.298)" fill="#212121"/><path d="M672.57,553.309V522.065l26.05-15.635,20.233,12.134v.8L698.62,507.232l-25.365,15.218v30.469l25.365,15.224L718.853,556v.8L698.62,568.937Z" transform="translate(-415.442 -339.874)" fill="#b3b3b3"/><path d="M559.98,307.074v-31.25L580.8,263.34h1.329l-21.466,12.874v30.469l25.372,15.224,25.371-15.224V276.214L589.942,263.34h1.336l20.815,12.484v31.25L586.037,322.7Z" transform="translate(-379.995 -263.34)" fill="#212121"/></g></g></g></svg>